<svg width="443" height="401" viewBox="0 0 443 401" fill="none" xmlns="http://www.w3.org/2000/svg">
<path d="M267.78 400.465L111.78 400.545C105.748 400.547 99.9618 398.154 95.6938 393.892C91.4257 389.63 89.0252 383.847 89.0199 377.815L88.8399 26.4048C88.8372 23.0001 89.5054 19.6282 90.8062 16.4818C92.107 13.3354 94.0149 10.476 96.421 8.06716C98.8271 5.65828 101.684 3.74703 104.829 2.44259C107.974 1.13815 111.345 0.466072 114.75 0.46476L267.87 0.384766C273.97 0.384766 279.82 2.80797 284.133 7.12131C288.447 11.4346 290.87 17.2848 290.87 23.3848L291.06 377.205C291.055 383.376 288.6 389.292 284.234 393.653C279.869 398.015 273.951 400.465 267.78 400.465Z" fill="#455A64"/>
<path d="M92.1903 369.695L92.0103 31.3048C92.0235 23.9793 94.9421 16.9582 100.126 11.782C105.309 6.60587 112.335 3.69739 119.66 3.69476L260 3.61475C263.633 3.61213 267.232 4.3253 270.589 5.71355C273.947 7.10179 276.998 9.1379 279.568 11.7056C282.139 14.2732 284.178 17.3222 285.57 20.6782C286.962 24.0342 287.679 27.6315 287.68 31.2648L287.86 369.655C287.863 373.288 287.15 376.886 285.761 380.244C284.373 383.601 282.337 386.652 279.769 389.223C277.202 391.793 274.153 393.833 270.797 395.224C267.441 396.616 263.843 397.333 260.21 397.335L119.87 397.415C116.232 397.416 112.628 396.7 109.267 395.307C105.905 393.914 102.852 391.871 100.28 389.296C97.7093 386.721 95.6713 383.665 94.2831 380.301C92.8949 376.938 92.1837 373.333 92.1903 369.695Z" fill="#263238"/>
<path d="M175.33 16.2247C174.733 16.2247 174.161 15.9877 173.739 15.5657C173.317 15.1438 173.08 14.5715 173.08 13.9747C173.08 13.378 173.317 12.8057 173.739 12.3837C174.161 11.9618 174.733 11.7247 175.33 11.7247H204.22C204.527 11.7042 204.836 11.747 205.126 11.8506C205.416 11.9541 205.682 12.1161 205.907 12.3266C206.132 12.5371 206.311 12.7915 206.434 13.0742C206.557 13.3568 206.62 13.6616 206.62 13.9697C206.62 14.2778 206.557 14.5827 206.434 14.8653C206.311 15.1479 206.132 15.4024 205.907 15.6129C205.682 15.8233 205.416 15.9854 205.126 16.0889C204.836 16.1924 204.527 16.2353 204.22 16.2147L175.33 16.2247Z" fill="#455A64"/>
<path d="M159.84 16.2348C159.395 16.2368 158.959 16.1065 158.587 15.8605C158.216 15.6145 157.926 15.2638 157.754 14.8528C157.582 14.4419 157.536 13.9892 157.622 13.552C157.708 13.1149 157.921 12.7131 158.236 12.3974C158.55 12.0817 158.951 11.8665 159.387 11.7788C159.824 11.6912 160.277 11.7352 160.689 11.9052C161.1 12.0752 161.453 12.3636 161.7 12.7338C161.948 13.104 162.08 13.5394 162.08 13.9848C162.08 14.5799 161.844 15.1506 161.425 15.5723C161.005 15.994 160.435 16.2322 159.84 16.2348Z" fill="#455A64"/>
<path d="M168.11 16.2246C167.665 16.2266 167.229 16.0963 166.857 15.8503C166.486 15.6042 166.196 15.2535 166.024 14.8426C165.852 14.4316 165.806 13.9789 165.892 13.5418C165.978 13.1047 166.191 12.7028 166.506 12.3872C166.82 12.0715 167.221 11.8562 167.657 11.7686C168.094 11.6809 168.547 11.7249 168.959 11.8949C169.371 12.0649 169.723 12.3533 169.97 12.7235C170.218 13.0937 170.35 13.5292 170.35 13.9746C170.35 14.5696 170.114 15.1404 169.695 15.5621C169.275 15.9837 168.705 16.2219 168.11 16.2246Z" fill="#455A64"/>
<path d="M219.84 16.1948C219.394 16.1948 218.959 16.0626 218.589 15.8149C218.219 15.5672 217.93 15.2153 217.76 14.8035C217.59 14.3918 217.546 13.9389 217.634 13.5022C217.721 13.0655 217.937 12.6646 218.252 12.3503C218.568 12.036 218.97 11.8225 219.407 11.7368C219.844 11.6512 220.297 11.6971 220.708 11.869C221.119 12.0408 221.469 12.3308 221.716 12.7021C221.962 13.0734 222.092 13.5094 222.09 13.9548C222.09 14.2498 222.032 14.5419 221.918 14.8144C221.805 15.0868 221.639 15.3342 221.43 15.5423C221.221 15.7504 220.973 15.9152 220.7 16.0272C220.427 16.1392 220.135 16.1961 219.84 16.1948Z" fill="#455A64"/>
<path d="M211.57 16.2046C211.125 16.2046 210.69 16.0726 210.32 15.8254C209.95 15.5782 209.661 15.2268 209.491 14.8156C209.321 14.4045 209.276 13.9521 209.363 13.5156C209.45 13.0792 209.664 12.6783 209.979 12.3636C210.293 12.0489 210.694 11.8346 211.131 11.7478C211.567 11.661 212.02 11.7056 212.431 11.8759C212.842 12.0462 213.193 12.3345 213.441 12.7046C213.688 13.0746 213.82 13.5096 213.82 13.9546C213.821 14.2504 213.764 14.5436 213.651 14.8172C213.539 15.0908 213.373 15.3393 213.164 15.5485C212.955 15.7577 212.706 15.9234 212.432 16.036C212.159 16.1486 211.866 16.2059 211.57 16.2046Z" fill="#455A64"/>
<path d="M261.5 8.20463H234.3C233.017 8.20408 231.769 8.61874 230.741 9.38662C229.714 10.1545 228.963 11.2343 228.6 12.4646L226.38 20.0846C225.979 21.4628 225.141 22.6733 223.992 23.5336C222.843 24.394 221.445 24.8576 220.01 24.8546H159.75C158.315 24.8555 156.919 24.3925 155.769 23.5346C154.619 22.6768 153.778 21.4701 153.37 20.0946L151.14 12.4746C150.778 11.2445 150.027 10.1651 148.999 9.39862C147.971 8.63219 146.722 8.2202 145.44 8.22462H118.22C112.49 8.214 106.991 10.4792 102.931 14.5222C98.8712 18.5652 96.5831 24.055 96.5698 29.7846L96.7498 370.405C96.759 373.241 97.3268 376.048 98.4208 378.665C99.5148 381.282 101.114 383.658 103.126 385.658C105.138 387.657 107.524 389.24 110.149 390.317C112.773 391.394 115.583 391.944 118.42 391.935L261.67 391.865C267.399 391.875 272.899 389.61 276.959 385.567C281.018 381.524 283.307 376.034 283.32 370.305L283.14 29.6946C283.111 23.9781 280.817 18.5062 276.76 14.4781C272.704 10.4499 267.216 8.19397 261.5 8.20463Z" fill="#FAFAFA"/>
<path d="M290.89 87.3247C291.242 87.3273 291.579 87.4683 291.828 87.7171C292.077 87.966 292.218 88.3028 292.22 88.6547V131.985C292.22 132.336 292.081 132.672 291.834 132.922C291.587 133.171 291.251 133.312 290.9 133.315L290.89 87.3247Z" fill="#455A64"/>
<path d="M88.87 115.775C88.5067 115.775 88.1582 115.919 87.9013 116.176C87.6443 116.433 87.5 116.782 87.5 117.145V143.515C87.5026 143.879 87.6492 144.228 87.9077 144.484C88.1662 144.741 88.5157 144.885 88.88 144.885L88.87 115.775Z" fill="#455A64"/>
<path d="M88.85 77.6948C88.6693 77.6948 88.4903 77.7306 88.3234 77.8001C88.1565 77.8695 88.0051 77.9713 87.8777 78.0996C87.7504 78.2279 87.6497 78.3801 87.5814 78.5475C87.5132 78.7148 87.4787 78.8941 87.48 79.0748V105.435C87.4826 105.8 87.6289 106.15 87.8871 106.408C88.1453 106.666 88.4948 106.812 88.86 106.815L88.85 77.6948Z" fill="#455A64"/>
<path d="M88.8399 49.1846C88.5243 49.1846 88.2216 49.3099 87.9984 49.5331C87.7753 49.7563 87.6499 50.059 87.6499 50.3746V61.5446C87.6499 61.7004 87.6807 61.8546 87.7407 61.9985C87.8006 62.1423 87.8884 62.2728 87.999 62.3825C88.1097 62.4922 88.2409 62.5789 88.3853 62.6376C88.5296 62.6964 88.6841 62.7259 88.8399 62.7246V49.1846Z" fill="#455A64"/>
<path d="M239.22 19.2949H237.83V21.2449H239.22V19.2949Z" fill="white"/>
<path d="M241.48 18.4248H240.09V21.2348H241.48V18.4248Z" fill="white"/>
<path d="M243.74 17.7749H242.35V21.2349H243.74V17.7749Z" fill="white"/>
<path d="M246 16.5146H244.61V21.2346H246V16.5146Z" fill="white"/>
<path d="M266.5 21.3247H259.5C259.435 21.3261 259.37 21.3144 259.309 21.2904C259.249 21.2663 259.194 21.2304 259.147 21.1848C259.1 21.1392 259.063 21.0847 259.038 21.0246C259.013 20.9645 259 20.8999 259 20.8347V17.3647C259 17.2339 259.051 17.1082 259.143 17.0147C259.234 16.9212 259.359 16.8674 259.49 16.8647H266.49C266.524 16.8671 266.555 16.8815 266.579 16.9054C266.603 16.9293 266.618 16.961 266.62 16.9948V18.1348H267.37C267.387 18.1347 267.403 18.1381 267.418 18.1447C267.434 18.1514 267.447 18.1611 267.459 18.1734C267.47 18.1856 267.479 18.2 267.484 18.2158C267.489 18.2315 267.491 18.2482 267.49 18.2647V19.9248C267.49 19.9592 267.476 19.9923 267.452 20.0167C267.428 20.041 267.394 20.0547 267.36 20.0547H266.61V21.1947C266.611 21.2105 266.61 21.2264 266.605 21.2415C266.6 21.2566 266.592 21.2706 266.582 21.2826C266.572 21.2947 266.559 21.3047 266.545 21.3119C266.531 21.3191 266.516 21.3235 266.5 21.3247ZM266.37 17.1147H259.5C259.436 17.1147 259.375 17.14 259.33 17.185C259.285 17.2301 259.26 17.2911 259.26 17.3548V20.8247C259.26 20.8884 259.285 20.9494 259.33 20.9945C259.375 21.0395 259.436 21.0648 259.5 21.0648H266.34V19.9248C266.34 19.8929 266.353 19.8624 266.375 19.8399C266.398 19.8174 266.428 19.8047 266.46 19.8047H267.21V18.3848H266.5C266.468 18.3848 266.438 18.3721 266.415 18.3496C266.393 18.3271 266.38 18.2966 266.38 18.2647L266.37 17.1147Z" fill="white"/>
<path d="M259.84 20.5046V17.6946L265.79 17.6846V18.9546V19.2346V20.5046H259.84Z" fill="white"/>
<path d="M252.64 21.0647C252.64 20.9638 252.61 20.8652 252.554 20.7814C252.498 20.6975 252.418 20.6321 252.325 20.5935C252.232 20.5549 252.13 20.5448 252.031 20.5645C251.932 20.5842 251.841 20.6327 251.77 20.7041C251.698 20.7754 251.65 20.8663 251.63 20.9652C251.61 21.0641 251.62 21.1667 251.659 21.2599C251.698 21.3531 251.763 21.4327 251.847 21.4887C251.931 21.5448 252.029 21.5747 252.13 21.5747C252.265 21.5747 252.395 21.521 252.491 21.4253C252.586 21.3297 252.64 21.2 252.64 21.0647Z" fill="white"/>
<path d="M250.39 19.8447L251.04 20.4847C251.33 20.1977 251.722 20.0367 252.13 20.0367C252.538 20.0367 252.93 20.1977 253.22 20.4847L253.87 19.8347C253.407 19.3753 252.782 19.1166 252.13 19.1147C251.806 19.1154 251.486 19.1802 251.187 19.3055C250.888 19.4308 250.618 19.6141 250.39 19.8447Z" fill="white"/>
<path d="M252.13 17.6948C251.096 17.6958 250.104 18.1056 249.37 18.8348L250.02 19.4848C250.582 18.9291 251.34 18.6174 252.13 18.6174C252.92 18.6174 253.678 18.9291 254.24 19.4848L254.89 18.8348C254.528 18.4719 254.098 18.1844 253.624 17.9887C253.15 17.793 252.643 17.6931 252.13 17.6948Z" fill="white"/>
<path d="M248.31 17.7646L248.96 18.4146C249.374 17.9947 249.868 17.6617 250.412 17.435C250.956 17.2083 251.54 17.0926 252.13 17.0946C253.318 17.0957 254.458 17.5666 255.3 18.4046L255.95 17.7546C255.449 17.2527 254.853 16.8545 254.198 16.5829C253.542 16.3112 252.84 16.1714 252.13 16.1714C251.421 16.1714 250.718 16.3112 250.062 16.5829C249.407 16.8545 248.812 17.2527 248.31 17.7546V17.7646Z" fill="white"/>
<path d="M134.97 103.395C134.948 105.944 134.171 108.43 132.736 110.537C131.302 112.645 129.275 114.28 126.911 115.235C124.548 116.191 121.954 116.424 119.458 115.905C116.962 115.386 114.676 114.139 112.888 112.321C111.101 110.503 109.893 108.196 109.417 105.691C108.941 103.187 109.218 100.597 110.214 98.2505C111.21 95.9036 112.879 93.9046 115.011 92.5064C117.142 91.1081 119.641 90.3733 122.19 90.395C123.883 90.4094 125.556 90.7571 127.114 91.4182C128.673 92.0793 130.086 93.0409 131.272 94.248C132.459 95.4552 133.397 96.8843 134.031 98.4538C134.665 100.023 134.984 101.702 134.97 103.395Z" fill="#A381EE"/>
<path d="M199.4 93.4649C199.4 93.6049 187.4 93.6249 172.7 93.4649C158 93.3049 145.99 93.1349 145.99 92.9849C145.99 92.8349 157.99 92.8249 172.7 92.9849C187.41 93.1449 199.41 93.3249 199.4 93.4649Z" fill="#263238"/>
<path d="M242.99 105.695C242.99 105.835 221.19 105.775 194.3 105.555C167.41 105.335 145.61 105.035 145.61 104.895C145.61 104.755 167.41 104.815 194.31 105.035C221.21 105.255 242.99 105.545 242.99 105.695Z" fill="#E0E0E0"/>
<path d="M242.91 115.305C242.91 115.445 221.11 115.385 194.22 115.165C167.33 114.945 145.5 114.695 145.5 114.505C145.5 114.315 167.29 114.425 194.19 114.645C221.09 114.865 242.91 115.155 242.91 115.305Z" fill="#E0E0E0"/>
<path d="M271.65 91.6147C271.65 91.7647 266.93 91.8347 261.12 91.7947C255.31 91.7547 250.6 91.5847 250.6 91.4447C250.6 91.3047 255.31 91.2247 261.13 91.2747C266.95 91.3247 271.65 91.4747 271.65 91.6147Z" fill="#263238"/>
<path d="M263.5 105.025L264.37 106.825C264.442 106.979 264.551 107.114 264.687 107.216C264.823 107.319 264.982 107.387 265.15 107.415L267.15 107.715C267.355 107.724 267.552 107.795 267.715 107.919C267.878 108.044 267.999 108.215 268.061 108.411C268.123 108.606 268.124 108.816 268.063 109.012C268.002 109.207 267.882 109.38 267.72 109.505L266.27 110.895C266.148 111.014 266.056 111.161 266.002 111.322C265.948 111.484 265.934 111.656 265.96 111.825L266.29 113.825C266.32 114.019 266.295 114.217 266.219 114.398C266.143 114.579 266.018 114.735 265.858 114.849C265.699 114.963 265.511 115.03 265.315 115.044C265.119 115.057 264.924 115.016 264.75 114.925L262.99 113.975C262.836 113.893 262.664 113.85 262.49 113.85C262.315 113.85 262.144 113.893 261.99 113.975L260.21 114.895C260.039 115.008 259.837 115.066 259.631 115.061C259.426 115.055 259.227 114.987 259.062 114.864C258.897 114.742 258.774 114.572 258.709 114.377C258.644 114.182 258.641 113.972 258.7 113.775L259.05 111.775C259.085 111.608 259.077 111.435 259.026 111.272C258.975 111.11 258.883 110.962 258.76 110.845L257.34 109.435C257.199 109.297 257.101 109.122 257.055 108.931C257.009 108.74 257.018 108.539 257.08 108.352C257.143 108.166 257.257 108 257.409 107.875C257.561 107.75 257.745 107.67 257.94 107.645L259.94 107.375C260.109 107.355 260.271 107.292 260.409 107.193C260.547 107.093 260.658 106.959 260.73 106.805L261.63 105.025C261.72 104.856 261.855 104.714 262.02 104.615C262.184 104.517 262.373 104.464 262.565 104.464C262.757 104.464 262.945 104.517 263.11 104.615C263.275 104.714 263.409 104.856 263.5 105.025Z" fill="#6744E3"/>
<path d="M213.66 92.8849C213.656 93.3635 213.51 93.8302 213.241 94.2259C212.972 94.6217 212.592 94.9287 212.148 95.1082C211.704 95.2877 211.217 95.3316 210.749 95.2343C210.28 95.1371 209.851 94.903 209.515 94.5618C209.179 94.2206 208.952 93.7875 208.863 93.3173C208.773 92.8471 208.825 92.361 209.012 91.9203C209.199 91.4797 209.512 91.1043 209.912 90.8417C210.313 90.579 210.782 90.441 211.26 90.4449C211.578 90.4475 211.892 90.5127 212.185 90.6368C212.477 90.7608 212.743 90.9412 212.966 91.1678C213.188 91.3944 213.365 91.6627 213.484 91.9573C213.603 92.2519 213.663 92.5671 213.66 92.8849Z" fill="#6744E3"/>
<path d="M282.4 69.5349C282.4 69.6749 240.75 69.4549 189.4 69.0349C138.05 68.6149 96.3999 68.1549 96.3999 68.0349C96.3999 67.9149 138.04 68.1149 189.4 68.5349C240.76 68.9549 282.41 69.3949 282.4 69.5349Z" fill="#E0E0E0"/>
<path d="M281.86 136.155C281.86 136.305 240.2 136.075 188.86 135.655C137.52 135.235 95.8599 134.775 95.8599 134.655C95.8599 134.535 137.51 134.735 188.86 135.155C240.21 135.575 281.86 136.015 281.86 136.155Z" fill="#E0E0E0"/>
<path d="M130.106 245.42C135.14 240.386 135.14 232.224 130.106 227.191C125.072 222.157 116.911 222.157 111.877 227.191C106.843 232.224 106.843 240.386 111.877 245.42C116.911 250.454 125.072 250.454 130.106 245.42Z" fill="#6744E3"/>
<path d="M198.31 226.485C198.31 226.625 186.36 226.645 171.61 226.485C156.86 226.325 144.9 226.155 144.9 226.005C144.9 225.855 156.9 225.845 171.61 226.005C186.32 226.165 198.32 226.345 198.31 226.485Z" fill="#263238"/>
<path d="M241.9 238.695C241.9 238.835 220.1 238.775 193.21 238.555C166.32 238.335 144.52 238.035 144.52 237.895C144.52 237.755 166.32 237.815 193.22 238.035C220.12 238.255 241.9 238.565 241.9 238.695Z" fill="#E0E0E0"/>
<path d="M241.82 248.325C241.82 248.465 220.02 248.405 193.13 248.185C166.24 247.965 144.44 247.665 144.45 247.525C144.46 247.385 166.24 247.445 193.14 247.665C220.04 247.885 241.82 248.175 241.82 248.325Z" fill="#E0E0E0"/>
<path d="M270.56 224.635C270.56 224.785 265.85 224.855 260.03 224.815C254.21 224.775 249.51 224.605 249.51 224.465C249.51 224.325 254.22 224.245 260.04 224.295C265.86 224.345 270.56 224.495 270.56 224.635Z" fill="#263238"/>
<path d="M262.4 238.045L263.27 239.845C263.343 239.999 263.451 240.133 263.587 240.236C263.723 240.339 263.882 240.407 264.05 240.435L266.05 240.735C266.255 240.744 266.452 240.815 266.615 240.939C266.778 241.064 266.899 241.235 266.961 241.431C267.023 241.626 267.024 241.836 266.963 242.031C266.902 242.227 266.782 242.399 266.62 242.525L265.17 243.915C265.048 244.034 264.956 244.181 264.902 244.342C264.849 244.504 264.834 244.676 264.86 244.845L265.19 246.845C265.22 247.039 265.196 247.237 265.119 247.418C265.043 247.599 264.918 247.755 264.759 247.869C264.599 247.983 264.411 248.05 264.215 248.064C264.02 248.077 263.824 248.036 263.65 247.945L261.89 246.945C261.736 246.863 261.565 246.82 261.39 246.82C261.216 246.82 261.044 246.863 260.89 246.945L259.11 247.865C258.939 247.978 258.737 248.036 258.532 248.031C258.326 248.025 258.128 247.956 257.963 247.834C257.798 247.712 257.675 247.542 257.61 247.347C257.545 247.152 257.542 246.942 257.6 246.745L257.96 244.745C257.994 244.577 257.984 244.404 257.932 244.241C257.879 244.078 257.786 243.931 257.66 243.815L256.24 242.405C256.1 242.267 256.001 242.092 255.955 241.901C255.909 241.709 255.918 241.509 255.981 241.322C256.043 241.136 256.157 240.97 256.309 240.845C256.461 240.72 256.645 240.64 256.84 240.615L258.84 240.345C259.01 240.325 259.171 240.262 259.309 240.163C259.448 240.063 259.558 239.929 259.63 239.775L260.53 237.995C260.625 237.828 260.764 237.69 260.931 237.595C261.098 237.501 261.288 237.454 261.48 237.459C261.672 237.464 261.859 237.521 262.021 237.624C262.183 237.728 262.314 237.873 262.4 238.045Z" fill="#6744E3"/>
<path d="M212.53 226.387C212.79 225.076 211.939 223.802 210.628 223.542C209.317 223.281 208.043 224.133 207.783 225.444C207.522 226.755 208.374 228.029 209.685 228.289C210.996 228.55 212.269 227.698 212.53 226.387Z" fill="#6744E3"/>
<path d="M281.31 202.555C281.31 202.695 239.66 202.475 188.31 202.055C136.96 201.635 95.3101 201.175 95.3101 201.055C95.3101 200.935 136.95 201.135 188.31 201.555C239.67 201.975 281.32 202.415 281.31 202.555Z" fill="#E0E0E0"/>
<path d="M280.77 269.175C280.77 269.325 239.77 269.055 189.18 268.575C138.59 268.095 97.5898 267.575 97.5898 267.455C97.5898 267.335 138.59 267.575 189.19 268.055C239.79 268.535 280.77 269.035 280.77 269.175Z" fill="#E0E0E0"/>
<path d="M132.85 362.915C132.828 365.464 132.051 367.949 130.617 370.056C129.183 372.164 127.156 373.798 124.793 374.754C122.43 375.71 119.837 375.944 117.341 375.426C114.846 374.908 112.559 373.662 110.772 371.845C108.984 370.028 107.775 367.721 107.298 365.218C106.821 362.714 107.097 360.125 108.091 357.777C109.085 355.43 110.753 353.431 112.883 352.031C115.013 350.632 117.511 349.895 120.06 349.915C123.479 349.944 126.748 351.33 129.146 353.767C131.544 356.205 132.876 359.495 132.85 362.915Z" fill="#E0E0E0"/>
<path d="M197.28 352.995C197.28 353.135 185.28 353.155 170.57 352.995C155.86 352.835 143.87 352.665 143.87 352.515C143.87 352.365 155.87 352.355 170.58 352.515C185.29 352.675 197.28 352.855 197.28 352.995Z" fill="#263238"/>
<path d="M240.86 365.225C240.86 365.365 219.06 365.305 192.18 365.085C165.3 364.865 143.49 364.565 143.49 364.425C143.49 364.285 165.29 364.345 192.18 364.565C219.07 364.785 240.86 365.075 240.86 365.225Z" fill="#E0E0E0"/>
<path d="M240.78 374.825C240.78 374.975 218.98 374.915 192.1 374.695C165.22 374.475 143.41 374.175 143.41 374.035C143.41 373.895 165.21 373.945 192.1 374.165C218.99 374.385 240.79 374.695 240.78 374.825Z" fill="#E0E0E0"/>
<path d="M269.5 351.145C269.5 351.285 264.79 351.365 258.98 351.315C253.17 351.265 248.45 351.115 248.45 350.975C248.45 350.835 253.17 350.755 258.98 350.795C264.79 350.835 269.5 351.005 269.5 351.145Z" fill="#263238"/>
<path d="M211.5 352.415C211.496 352.893 211.35 353.36 211.081 353.756C210.812 354.151 210.431 354.458 209.988 354.638C209.544 354.817 209.057 354.861 208.588 354.764C208.12 354.667 207.691 354.433 207.355 354.092C207.019 353.75 206.792 353.317 206.703 352.847C206.613 352.377 206.665 351.891 206.852 351.45C207.039 351.009 207.352 350.634 207.752 350.371C208.152 350.109 208.621 349.971 209.1 349.975C209.418 349.977 209.732 350.042 210.025 350.167C210.317 350.291 210.583 350.471 210.805 350.698C211.028 350.924 211.204 351.192 211.324 351.487C211.443 351.782 211.503 352.097 211.5 352.415Z" fill="#6744E3"/>
<path d="M282.892 136.17L97.4482 134.649L96.9018 201.267L282.346 202.788L282.892 136.17Z" fill="#F5F5F5"/>
<path d="M131.035 177.614C136.069 172.58 136.069 164.418 131.035 159.384C126.001 154.351 117.839 154.351 112.806 159.384C107.772 164.418 107.772 172.58 112.806 177.614C117.839 182.647 126.001 182.647 131.035 177.614Z" fill="#455A64"/>
<path d="M199.24 158.695C199.24 158.845 187.24 158.865 172.54 158.745C157.84 158.625 145.83 158.405 145.83 158.265C145.83 158.125 157.83 158.095 172.54 158.265C187.25 158.435 199.24 158.535 199.24 158.695Z" fill="#263238"/>
<path d="M242.83 170.905C242.83 171.055 221.03 170.985 194.14 170.765C167.25 170.545 145.45 170.255 145.45 170.105C145.45 169.955 167.25 170.025 194.14 170.245C221.03 170.465 242.83 170.765 242.83 170.905Z" fill="#E0E0E0"/>
<path d="M242.75 180.515C242.75 180.655 220.95 180.595 194.06 180.375C167.17 180.155 145.37 179.865 145.37 179.715C145.37 179.565 167.17 179.635 194.07 179.855C220.97 180.075 242.75 180.375 242.75 180.515Z" fill="#E0E0E0"/>
<path d="M271.5 156.835C271.5 156.975 266.78 157.055 260.97 157.005C257.46 157.065 253.949 156.948 250.45 156.655C250.45 156.515 255.16 156.435 260.98 156.485C264.491 156.424 268.002 156.541 271.5 156.835Z" fill="#263238"/>
<path d="M263.33 170.245C263.33 170.245 263.25 170.135 263.07 169.975C262.943 169.869 262.791 169.796 262.629 169.763C262.467 169.729 262.299 169.737 262.14 169.785C261.916 169.846 261.726 169.994 261.61 170.195C261.48 170.415 261.35 170.715 261.21 171.005L260.75 172.005C260.669 172.215 260.534 172.4 260.358 172.54C260.183 172.681 259.973 172.772 259.75 172.805L258.46 173.005L257.78 173.105C257.589 173.137 257.415 173.237 257.29 173.385C257.159 173.536 257.086 173.73 257.086 173.93C257.086 174.13 257.159 174.324 257.29 174.475L258.43 175.595L258.73 175.885C258.851 175.999 258.949 176.135 259.02 176.285C259.16 176.6 259.185 176.954 259.09 177.285C258.99 177.852 258.89 178.432 258.79 179.025C258.758 179.14 258.753 179.262 258.775 179.38C258.797 179.497 258.845 179.609 258.917 179.705C258.988 179.801 259.08 179.88 259.186 179.936C259.293 179.991 259.41 180.022 259.53 180.025C259.76 180.025 259.97 179.905 260.27 179.755L261.12 179.325C261.41 179.15 261.718 179.009 262.04 178.905C262.223 178.869 262.41 178.87 262.592 178.907C262.774 178.945 262.947 179.019 263.1 179.125L264.7 179.985C264.801 180.034 264.91 180.062 265.022 180.067C265.133 180.072 265.245 180.053 265.349 180.013C265.454 179.972 265.548 179.911 265.628 179.832C265.707 179.753 265.769 179.659 265.81 179.555C265.88 179.323 265.88 179.076 265.81 178.845C265.81 178.565 265.73 178.295 265.68 178.025L265.56 177.215C265.5 176.898 265.56 176.569 265.73 176.295C265.9 176.077 266.091 175.876 266.3 175.695L266.85 175.185L267.37 174.695C267.511 174.568 267.609 174.4 267.65 174.215C267.682 174.038 267.66 173.856 267.584 173.693C267.509 173.53 267.385 173.395 267.23 173.305C266.872 173.189 266.504 173.109 266.13 173.065L265.13 172.885C264.96 172.87 264.794 172.819 264.645 172.737C264.495 172.654 264.364 172.541 264.26 172.405C264.127 172.173 264.01 171.933 263.91 171.685C263.69 171.257 263.512 170.808 263.38 170.345C263.656 170.74 263.897 171.158 264.1 171.595C264.206 171.822 264.327 172.043 264.46 172.255C264.55 172.358 264.661 172.441 264.785 172.5C264.909 172.558 265.043 172.591 265.18 172.595L266.18 172.735C266.596 172.765 267.006 172.849 267.4 172.985C267.572 173.08 267.72 173.214 267.83 173.376C267.941 173.538 268.012 173.724 268.037 173.919C268.063 174.114 268.042 174.312 267.976 174.497C267.911 174.682 267.802 174.849 267.66 174.985L267.14 175.485L266.61 176.015C266.429 176.167 266.265 176.338 266.12 176.525C266.017 176.707 265.981 176.919 266.02 177.125C266.07 177.395 266.11 177.665 266.16 177.935C266.21 178.205 266.25 178.475 266.3 178.755C266.401 179.081 266.401 179.429 266.3 179.755C266.237 179.926 266.138 180.082 266.01 180.212C265.882 180.343 265.728 180.444 265.559 180.511C265.389 180.578 265.207 180.609 265.024 180.601C264.842 180.593 264.663 180.547 264.5 180.465L262.89 179.605C262.789 179.528 262.672 179.473 262.548 179.443C262.424 179.414 262.295 179.411 262.17 179.435C261.898 179.538 261.634 179.662 261.38 179.805L260.54 180.235L260.11 180.455C259.931 180.536 259.736 180.574 259.54 180.565C259.351 180.555 259.167 180.506 258.999 180.419C258.831 180.332 258.683 180.209 258.567 180.061C258.45 179.912 258.367 179.74 258.323 179.556C258.278 179.372 258.274 179.181 258.31 178.995C258.42 178.405 258.53 177.825 258.63 177.265C258.712 177.042 258.712 176.798 258.63 176.575C258.503 176.359 258.337 176.169 258.14 176.015L256.95 174.695C256.749 174.461 256.639 174.163 256.639 173.855C256.639 173.547 256.749 173.249 256.95 173.015C257.146 172.799 257.411 172.657 257.7 172.615L258.39 172.525L259.69 172.365C259.86 172.346 260.021 172.281 260.157 172.177C260.293 172.073 260.398 171.934 260.46 171.775L260.95 170.835C261.11 170.545 261.24 170.285 261.4 170.015C261.562 169.777 261.809 169.609 262.09 169.545C262.278 169.5 262.474 169.505 262.659 169.562C262.843 169.618 263.01 169.723 263.14 169.865C263.31 170.095 263.34 170.235 263.33 170.245Z" fill="#263238"/>
<path d="M213.5 158.105C213.496 158.583 213.35 159.05 213.081 159.446C212.812 159.841 212.431 160.148 211.988 160.328C211.544 160.507 211.057 160.551 210.588 160.454C210.12 160.357 209.691 160.123 209.355 159.782C209.019 159.44 208.792 159.007 208.703 158.537C208.613 158.067 208.665 157.581 208.852 157.14C209.039 156.699 209.352 156.324 209.752 156.061C210.152 155.799 210.621 155.661 211.1 155.665C211.741 155.673 212.353 155.933 212.803 156.39C213.252 156.847 213.503 157.464 213.5 158.105Z" fill="#6744E3"/>
<path d="M283.033 268.977L97.5889 267.456L97.0424 334.073L282.486 335.595L283.033 268.977Z" fill="#F5F5F5"/>
<path d="M131.174 310.415C136.208 305.382 136.208 297.22 131.174 292.186C126.141 287.152 117.979 287.152 112.945 292.186C107.911 297.22 107.911 305.382 112.945 310.415C117.979 315.449 126.141 315.449 131.174 310.415Z" fill="#51628E"/>
<path d="M199.38 291.485C199.38 291.625 187.38 291.645 172.68 291.485C157.98 291.325 145.97 291.155 145.97 291.005C145.97 290.855 157.97 290.845 172.68 291.005C187.39 291.165 199.38 291.345 199.38 291.485Z" fill="#263238"/>
<path d="M242.97 303.695C242.97 303.835 221.17 303.775 194.28 303.555C167.39 303.335 145.59 303.035 145.59 302.895C145.59 302.755 167.39 302.815 194.28 303.035C221.17 303.255 242.97 303.565 242.97 303.695Z" fill="#E0E0E0"/>
<path d="M242.89 313.325C242.89 313.465 221.09 313.405 194.2 313.185C167.31 312.965 145.5 312.695 145.5 312.525C145.5 312.355 167.3 312.445 194.2 312.665C221.1 312.885 242.89 313.175 242.89 313.325Z" fill="#E0E0E0"/>
<path d="M271.63 289.635C271.63 289.785 266.91 289.855 261.1 289.815C255.29 289.775 250.58 289.605 250.58 289.465C250.58 289.325 255.29 289.245 261.11 289.295C266.93 289.345 271.63 289.495 271.63 289.635Z" fill="#263238"/>
<path d="M263.5 303.045C263.5 303.045 263.42 302.935 263.24 302.785C263.114 302.677 262.962 302.602 262.8 302.567C262.638 302.532 262.469 302.538 262.31 302.585C262.088 302.65 261.899 302.796 261.78 302.995C261.65 303.225 261.52 303.525 261.38 303.815C261.24 304.105 261.08 304.435 260.92 304.765C260.841 304.977 260.707 305.164 260.531 305.307C260.355 305.449 260.144 305.542 259.92 305.575L258.63 305.765L257.95 305.875C257.802 305.896 257.663 305.958 257.548 306.054C257.432 306.149 257.345 306.274 257.296 306.415C257.247 306.556 257.237 306.708 257.267 306.854C257.298 307 257.368 307.135 257.47 307.245L258.61 308.355L258.91 308.645C259.033 308.76 259.132 308.9 259.2 309.055C259.346 309.368 259.371 309.724 259.27 310.055C259.17 310.628 259.07 311.208 258.97 311.795C258.945 311.907 258.945 312.023 258.97 312.136C258.995 312.248 259.045 312.353 259.116 312.444C259.186 312.535 259.276 312.609 259.379 312.661C259.482 312.713 259.595 312.741 259.71 312.745C259.976 312.73 260.233 312.64 260.45 312.485L261.3 312.045C261.591 311.874 261.9 311.733 262.22 311.625C262.59 311.559 262.97 311.642 263.28 311.855L264.88 312.715C264.98 312.764 265.09 312.792 265.201 312.797C265.313 312.801 265.425 312.783 265.529 312.743C265.633 312.702 265.728 312.641 265.807 312.562C265.887 312.483 265.949 312.389 265.99 312.285C266.06 312.053 266.06 311.806 265.99 311.575C265.99 311.295 265.91 311.015 265.86 310.745L265.74 309.945C265.678 309.627 265.739 309.299 265.91 309.025C266.079 308.806 266.27 308.605 266.48 308.425L267.03 307.915L267.55 307.415C267.694 307.29 267.793 307.121 267.83 306.935C267.861 306.76 267.838 306.579 267.763 306.418C267.688 306.257 267.564 306.123 267.41 306.035C267.053 305.914 266.684 305.834 266.31 305.795L265.31 305.615C265.139 305.598 264.973 305.545 264.823 305.461C264.674 305.377 264.543 305.262 264.44 305.125C264.307 304.896 264.19 304.659 264.09 304.415C263.866 303.984 263.689 303.532 263.56 303.065C263.834 303.464 264.075 303.886 264.28 304.325C264.386 304.549 264.506 304.766 264.64 304.975C264.729 305.079 264.839 305.165 264.963 305.225C265.087 305.285 265.222 305.319 265.36 305.325L266.36 305.465C266.747 305.499 267.13 305.576 267.5 305.695C267.729 305.817 267.915 306.008 268.029 306.241C268.144 306.475 268.183 306.738 268.14 306.995C268.096 307.27 267.962 307.523 267.76 307.715L267.24 308.215L266.71 308.735C266.531 308.892 266.366 309.066 266.22 309.255C266.115 309.436 266.08 309.649 266.12 309.855C266.17 310.125 266.21 310.385 266.26 310.655C266.31 310.925 266.35 311.205 266.4 311.485C266.496 311.811 266.496 312.158 266.4 312.485C266.333 312.654 266.231 312.808 266.102 312.937C265.973 313.065 265.818 313.165 265.648 313.231C265.478 313.297 265.296 313.327 265.114 313.319C264.932 313.311 264.753 313.265 264.59 313.185C264.06 312.905 263.52 312.625 262.98 312.325C262.77 312.178 262.513 312.117 262.26 312.155C261.988 312.262 261.724 312.389 261.47 312.535L260.63 312.965L260.2 313.185C260.019 313.258 259.825 313.292 259.63 313.285C259.442 313.275 259.258 313.225 259.091 313.139C258.924 313.052 258.777 312.931 258.661 312.784C258.544 312.636 258.461 312.465 258.416 312.282C258.371 312.1 258.365 311.91 258.4 311.725C258.51 311.135 258.62 310.555 258.72 309.985C258.802 309.762 258.802 309.517 258.72 309.295C258.587 309.083 258.422 308.894 258.23 308.735L257.09 307.585C256.889 307.351 256.779 307.053 256.779 306.745C256.779 306.436 256.889 306.138 257.09 305.905C257.288 305.689 257.551 305.545 257.84 305.495L258.53 305.405L259.83 305.245C260 305.23 260.162 305.167 260.298 305.065C260.434 304.962 260.539 304.824 260.6 304.665L261.09 303.725C261.25 303.425 261.38 303.165 261.54 302.905C261.699 302.661 261.946 302.489 262.23 302.425C262.41 302.39 262.596 302.402 262.77 302.458C262.945 302.513 263.103 302.612 263.23 302.745C263.5 302.905 263.5 303.045 263.5 303.045Z" fill="#263238"/>
<path d="M213.64 290.905C213.636 291.384 213.49 291.85 213.221 292.246C212.952 292.642 212.572 292.949 212.128 293.128C211.684 293.308 211.197 293.352 210.729 293.254C210.26 293.157 209.831 292.923 209.495 292.582C209.159 292.241 208.932 291.808 208.843 291.337C208.753 290.867 208.805 290.381 208.992 289.94C209.179 289.5 209.492 289.124 209.892 288.862C210.293 288.599 210.762 288.461 211.24 288.465C211.558 288.468 211.872 288.533 212.165 288.657C212.457 288.781 212.723 288.961 212.946 289.188C213.168 289.414 213.344 289.683 213.464 289.977C213.583 290.272 213.643 290.587 213.64 290.905Z" fill="#6744E3"/>
<path d="M197.699 44.8359L182.159 44.7084C180.917 44.6982 179.901 45.6973 179.891 46.9399L179.795 58.6195C179.785 59.8621 180.784 60.8777 182.026 60.8879L197.566 61.0153C198.808 61.0255 199.824 60.0265 199.834 58.7839L199.93 47.1043C199.94 45.8617 198.941 44.8461 197.699 44.8359Z" fill="#6744E3"/>
<path d="M198.85 45.4547C198.683 45.7617 198.474 46.0444 198.23 46.2947C197.81 46.8147 197.23 47.5547 196.4 48.4647L193.64 51.6347L191.99 53.4947C191.704 53.8432 191.4 54.177 191.08 54.4947C190.675 54.8294 190.154 54.9911 189.63 54.9447C189.111 54.8906 188.634 54.6358 188.3 54.2347L187.41 53.2347L185.74 51.3947L182.94 48.2647C182.14 47.3647 181.51 46.6347 181.08 46.1147C180.835 45.8667 180.623 45.5876 180.45 45.2847C180.45 45.2847 180.75 45.5047 181.23 45.9847C181.71 46.4647 182.38 47.1447 183.23 47.9847L186.11 51.0447L187.81 52.8647L188.7 53.8647C188.821 54.0156 188.971 54.141 189.142 54.2334C189.312 54.3259 189.499 54.3835 189.691 54.4031C189.884 54.4226 190.078 54.4036 190.264 54.3473C190.449 54.2909 190.621 54.1982 190.77 54.0747C191.04 53.8347 191.35 53.4447 191.63 53.1447L193.3 51.3047L196.15 48.2047C196.96 47.3347 197.63 46.6247 198.15 46.2047C198.351 45.9264 198.586 45.6745 198.85 45.4547Z" fill="white"/>
<path d="M186.81 52.7847C185.841 54.0805 184.768 55.2946 183.6 56.4147C182.549 57.6581 181.338 58.7576 180 59.6847C180.971 58.3878 182.048 57.1737 183.22 56.0547C184.269 54.813 185.476 53.7136 186.81 52.7847Z" fill="white"/>
<path d="M199.82 60.0645C198.46 58.9796 197.217 57.7563 196.11 56.4146C194.87 55.192 193.752 53.8525 192.77 52.4146C194.132 53.5008 195.378 54.7238 196.49 56.0646C197.728 57.2856 198.844 58.6253 199.82 60.0645Z" fill="white"/>
<path d="M125.27 51.3348C125.27 51.4248 121.85 51.4948 117.63 51.4948C113.41 51.4948 109.99 51.4248 109.99 51.3348C109.99 51.2448 113.41 51.1748 117.63 51.1748C121.85 51.1748 125.27 51.2448 125.27 51.3348Z" fill="#263238"/>
<path d="M125.27 55.245C125.27 55.335 121.85 55.405 117.63 55.405C113.41 55.405 109.99 55.335 109.99 55.245C109.99 55.155 113.41 55.085 117.63 55.085C121.85 55.085 125.27 55.155 125.27 55.245Z" fill="#263238"/>
<path d="M125.27 59.1546C125.27 59.2446 121.85 59.3246 117.63 59.3246C113.41 59.3246 109.99 59.2446 109.99 59.1646C109.99 59.0846 113.41 58.9946 117.63 58.9946C121.85 58.9946 125.27 59.0746 125.27 59.1546Z" fill="#263238"/>
<path d="M268.68 53.8249C268.63 53.8249 268.68 53.4449 268.46 52.8249C268.213 51.9397 267.679 51.162 266.94 50.6149C266.349 50.1663 265.645 49.891 264.906 49.8197C264.167 49.7485 263.423 49.8842 262.757 50.2116C262.091 50.539 261.53 51.0452 261.135 51.6737C260.74 52.3021 260.528 53.028 260.522 53.7701C260.516 54.5122 260.717 55.2412 261.102 55.8758C261.487 56.5103 262.041 57.0252 262.702 57.363C263.362 57.7007 264.104 57.848 264.844 57.7883C265.584 57.7286 266.292 57.4643 266.89 57.0249C267.633 56.4825 268.18 55.7142 268.45 54.8349C268.63 54.2049 268.63 53.8349 268.68 53.8349C268.693 53.9245 268.693 54.0154 268.68 54.1049C268.686 54.3672 268.659 54.6292 268.6 54.8849C268.383 55.843 267.838 56.6953 267.06 57.2949C266.404 57.7862 265.623 58.0842 264.806 58.1554C263.989 58.2267 263.169 58.0682 262.437 57.698C261.706 57.3278 261.092 56.7605 260.666 56.0602C260.239 55.3598 260.017 54.5543 260.024 53.7344C260.031 52.9145 260.267 52.1128 260.705 51.4199C261.144 50.727 261.767 50.1703 262.505 49.8127C263.243 49.455 264.066 49.3107 264.881 49.3959C265.697 49.4811 266.472 49.7925 267.12 50.2949C267.888 50.9078 268.416 51.7717 268.61 52.7349C268.667 52.9908 268.691 53.253 268.68 53.5149C268.704 53.6169 268.704 53.723 268.68 53.8249Z" fill="#263238"/>
<path d="M270.93 61.0849C270.162 60.5713 269.486 59.9324 268.93 59.1949C268.247 58.5581 267.676 57.8111 267.24 56.9849C268.008 57.4985 268.684 58.1373 269.24 58.8749C269.926 59.5093 270.498 60.2569 270.93 61.0849Z" fill="#263238"/>
<path d="M259.31 262.694L259.17 316.434L235.42 311.554L215.42 307.374C215.42 307.374 242.8 361.374 272.58 361.374C302.36 361.374 306.21 316.444 306.21 316.444L307.98 262.694H259.31Z" fill="#CFA592"/>
<path d="M382.68 124.065C380.5 125.305 377.5 123.695 376.5 121.375C375.5 119.055 375.96 116.375 376.72 113.935C377.48 111.495 378.54 109.155 378.72 106.625C378.809 104.315 378.153 102.038 376.85 100.129C375.546 98.2209 373.664 96.7819 371.48 96.0246C375.78 92.6146 376.13 85.3046 372.18 81.4946C370.33 79.7146 367.87 78.7446 365.72 77.3446C364.497 76.5368 363.358 75.6089 362.32 74.5746C364.239 75.0475 366.236 75.1088 368.18 74.7546C369.738 74.4126 371.186 73.6837 372.388 72.6351C373.59 71.5865 374.509 70.2519 375.06 68.7546C375.568 67.238 375.642 65.6099 375.275 64.0534C374.907 62.4969 374.113 61.0739 372.98 59.9446C371.812 58.851 370.339 58.139 368.756 57.9032C367.173 57.6674 365.556 57.919 364.12 58.6246C361.34 60.0946 359.82 63.1146 358.47 65.9546L357.21 68.5846C353.3 63.4046 349.62 58.0546 343.59 56.2346C338.12 54.5846 332.24 56.4246 326.54 56.0146C322.39 55.7046 318.41 54.2146 314.27 53.7546C310.13 53.2946 305.42 54.1846 302.98 57.5546C301.54 59.5546 301.09 62.0946 299.64 64.0646C296.64 68.1246 290.18 68.6746 287.72 73.0646C285.72 76.6446 287.26 81.1646 286.4 85.1746C285.47 89.5346 281.87 92.7246 278.93 96.0746C275.99 99.4246 273.42 104.025 275.07 108.165C276.53 111.815 280.78 113.775 282.16 117.445C283.16 120.125 282.44 123.095 282.39 125.955C282.34 128.815 283.48 132.215 286.27 132.865L318 141.245C328.93 145.685 340.2 150.245 352 150.185C363.8 150.125 376.39 144.505 381 133.665C379.284 133.6 377.658 132.885 376.45 131.665C377.991 130.944 379.35 129.888 380.429 128.572C381.507 127.257 382.276 125.717 382.68 124.065Z" fill="#263238"/>
<path d="M356.67 134.015C359.29 126.015 361.87 117.865 363.06 109.485C364.25 101.105 364 92.3648 361.06 84.4848C360.62 83.2848 356.81 75.2148 355.53 75.3448C354.62 75.4348 356.96 82.9548 356.53 83.7548C352.13 91.3148 350.93 100.405 351.64 109.135C352.398 117.608 354.098 125.969 356.71 134.065" fill="#263238"/>
<path d="M328.65 204.355C341.77 204.075 356.65 175.355 356.65 175.355L357.5 101.695C358.18 80.4847 346.41 62.4047 325.19 62.3047L323.19 62.4047C313.672 62.9251 304.698 67.0035 298.046 73.831C291.394 80.6586 287.552 89.7366 287.28 99.2647C286.79 117.655 286.47 137.985 287.12 147.805C288.46 168.125 308.97 170.195 308.97 170.195C308.97 170.195 309.09 174.915 309.15 180.895C309.29 194.315 323.34 204.775 328.6 204.325L328.65 204.355Z" fill="#CFA592"/>
<path d="M309.02 170.225C309.02 170.225 321.88 170.295 335.08 160.975C335.08 160.975 329.42 176.115 309.03 175.375L309.02 170.225Z" fill="#B6998D"/>
<path d="M296.11 115.255C296.144 116.019 296.478 116.74 297.039 117.261C297.601 117.781 298.345 118.059 299.11 118.035C299.48 118.044 299.848 117.979 300.193 117.844C300.538 117.709 300.852 117.507 301.117 117.249C301.383 116.991 301.594 116.683 301.739 116.342C301.884 116.001 301.959 115.635 301.96 115.265C301.929 114.498 301.596 113.775 301.034 113.252C300.472 112.73 299.727 112.45 298.96 112.475C298.589 112.465 298.22 112.53 297.875 112.666C297.529 112.801 297.214 113.005 296.949 113.264C296.683 113.523 296.472 113.832 296.328 114.174C296.184 114.516 296.11 114.884 296.11 115.255Z" fill="#263238"/>
<path d="M292.13 107.505C292.51 107.865 294.62 106.115 297.75 105.955C300.88 105.795 303.25 107.245 303.57 106.835C303.72 106.665 303.32 105.995 302.28 105.325C300.88 104.457 299.244 104.048 297.6 104.155C295.974 104.236 294.416 104.831 293.15 105.855C292.23 106.695 291.94 107.345 292.13 107.505Z" fill="#263238"/>
<path d="M324.26 114.505C324.294 115.27 324.628 115.99 325.189 116.511C325.751 117.031 326.495 117.309 327.26 117.285C327.631 117.294 328 117.229 328.346 117.094C328.691 116.958 329.006 116.755 329.271 116.496C329.537 116.237 329.748 115.927 329.892 115.585C330.036 115.243 330.11 114.876 330.11 114.505C330.077 113.749 329.75 113.036 329.199 112.517C328.648 111.998 327.917 111.714 327.16 111.725C326.786 111.71 326.412 111.771 326.061 111.904C325.71 112.037 325.39 112.239 325.12 112.499C324.849 112.758 324.633 113.069 324.486 113.414C324.338 113.759 324.261 114.13 324.26 114.505Z" fill="#263238"/>
<path d="M322.81 107.125C323.19 107.485 325.31 105.745 328.43 105.585C331.55 105.425 333.93 106.865 334.25 106.465C334.41 106.285 334.01 105.625 332.96 104.945C331.558 104.083 329.923 103.674 328.28 103.775C326.654 103.858 325.097 104.453 323.83 105.475C322.92 106.265 322.63 106.965 322.81 107.125Z" fill="#263238"/>
<path d="M312.89 131.745C312.89 131.565 310.89 131.335 307.76 131.105C306.96 131.105 306.2 130.945 306.03 130.405C305.916 129.585 306.06 128.75 306.44 128.015C307.107 126.015 307.774 123.945 308.44 121.805C311.26 112.985 313.25 105.735 312.89 105.625C312.53 105.515 309.96 112.625 307.15 121.415C306.48 123.585 305.83 125.665 305.22 127.645C304.766 128.635 304.677 129.755 304.97 130.805C305.102 131.08 305.295 131.321 305.534 131.51C305.773 131.699 306.052 131.83 306.35 131.895C306.796 131.994 307.254 132.034 307.71 132.015C310.92 132.015 312.88 131.925 312.89 131.745Z" fill="#263238"/>
<path d="M322.2 133.414C321.69 133.414 321.87 136.804 319.09 139.364C316.31 141.924 312.69 141.754 312.69 142.224C312.69 142.444 313.53 142.844 315.05 142.804C317.04 142.724 318.937 141.945 320.41 140.604C321.827 139.312 322.684 137.519 322.8 135.604C322.86 134.204 322.43 133.384 322.2 133.414Z" fill="#263238"/>
<path d="M322.3 94.4348C322.66 95.2748 325.76 94.7048 329.45 94.9448C333.14 95.1848 336.16 96.0348 336.6 95.2448C336.8 94.8648 336.24 94.0948 335 93.3348C333.35 92.414 331.512 91.8806 329.626 91.7749C327.739 91.6692 325.853 91.994 324.11 92.7248C322.79 93.3348 322.15 94.0448 322.3 94.4348Z" fill="#263238"/>
<path d="M292.86 97.0447C293.45 97.7247 295.57 96.8747 298.15 96.7047C300.73 96.5347 302.96 96.9247 303.42 96.1547C303.63 95.7847 303.24 95.0847 302.25 94.4647C300.919 93.7302 299.401 93.4066 297.886 93.5347C296.371 93.6629 294.929 94.237 293.74 95.1847C292.86 95.9647 292.6 96.6947 292.86 97.0447Z" fill="#263238"/>
<path d="M356.65 116.875C356.99 116.705 370.4 111.995 370.71 125.875C371.02 139.755 356.96 137.225 356.93 136.875C356.9 136.525 356.65 116.875 356.65 116.875Z" fill="#CFA592"/>
<path d="M361.07 131.515C361.13 131.515 361.32 131.675 361.73 131.855C362.311 132.089 362.96 132.089 363.54 131.855C365 131.285 366.19 128.915 366.21 126.405C366.214 125.209 365.955 124.028 365.45 122.945C365.31 122.514 365.067 122.123 364.744 121.806C364.42 121.489 364.024 121.256 363.59 121.125C363.309 121.057 363.013 121.091 362.754 121.218C362.495 121.346 362.288 121.561 362.17 121.825C361.99 122.215 362.09 122.495 362.01 122.515C361.93 122.535 361.71 122.285 361.81 121.715C361.881 121.367 362.068 121.053 362.34 120.825C362.525 120.676 362.738 120.565 362.967 120.5C363.195 120.435 363.434 120.416 363.67 120.445C364.244 120.545 364.782 120.791 365.234 121.159C365.685 121.526 366.035 122.003 366.25 122.545C366.873 123.739 367.193 125.068 367.18 126.415C367.18 129.225 365.77 131.875 363.77 132.505C363.398 132.623 363.005 132.655 362.619 132.6C362.232 132.544 361.864 132.402 361.54 132.185C361.1 131.845 361.02 131.535 361.07 131.515Z" fill="#B6998D"/>
<path d="M296.05 76.1044C293.78 74.8944 300.45 67.5044 305.96 64.9144C314.28 61.0144 327.04 58.5144 334.78 60.6044C344.11 63.1144 351.89 67.6044 356.67 76.0444C361.45 84.4844 363.33 94.2744 363.18 103.934C363.13 106.884 362.87 109.934 361.32 112.474C359.42 115.574 355.71 117.564 355.93 121.814C355.992 122.583 355.901 123.356 355.663 124.089C355.424 124.822 355.043 125.5 354.54 126.084C352.02 128.824 348.87 126.314 347.41 123.784C344.27 118.364 343.85 111.854 343.5 105.614C343.25 101.174 343.01 96.6144 344.21 92.3544C344.86 90.0244 345.93 87.8144 346.45 85.4544C346.97 83.0944 346.87 80.4544 345.37 78.5044C345.026 78.0932 344.644 77.7149 344.23 77.3744C342.264 75.7064 339.89 74.5905 337.351 74.1408C334.813 73.691 332.2 73.9234 329.78 74.8144C321.97 77.6944 308.63 82.0144 305.1 79.3944C300.02 75.6244 298.78 73.1444 298.78 73.1444L296.05 76.1044Z" fill="#263238"/>
<path d="M334.03 58.6946C326.35 56.2346 317.63 56.4846 310.52 60.2946C306.74 62.2946 303.34 65.5146 302.24 69.6446C301.14 73.7746 302.96 78.8446 306.94 80.4046L307.22 80.5746C313.22 82.4946 317.04 81.6546 322.94 79.5246C327.94 77.7346 332.3 74.6046 337.27 72.8346C342.598 70.9601 348.364 70.7198 353.83 72.1446C348.43 66.1646 341.72 61.1846 334.03 58.6946Z" fill="#263238"/>
<path d="M360.5 72.4948C360.38 72.5948 359.26 71.2648 357 69.6948C355.685 68.7764 354.265 68.0177 352.77 67.4348C350.982 66.6813 349.048 66.3396 347.11 66.4348C343.562 66.8294 340.197 68.2157 337.4 70.4348C335.24 72.1448 334.24 73.5847 334.11 73.4847C333.98 73.3847 334.26 73.0548 334.72 72.4148C335.376 71.5074 336.131 70.6757 336.97 69.9348C339.782 67.4498 343.298 65.9016 347.03 65.5048C349.107 65.3855 351.182 65.7555 353.09 66.5848C354.631 67.2298 356.078 68.0809 357.39 69.1148C359.64 70.9248 360.6 72.4348 360.5 72.4948Z" fill="#455A64"/>
<path d="M361.91 77.4244C361.794 78.8096 361.435 80.1635 360.85 81.4244C358.347 87.6676 353.751 92.8465 347.85 96.0744C346.677 96.8041 345.383 97.3188 344.03 97.5944C343.86 97.3244 349.88 95.0444 354.93 89.2644C359.98 83.4844 361.62 77.2944 361.91 77.4244Z" fill="#455A64"/>
<path d="M367.58 79.6948C367.689 80.2145 367.706 80.7493 367.63 81.2748C367.557 82.7164 367.356 84.1487 367.03 85.5548C365.961 90.2415 363.749 94.5908 360.591 98.2148C357.432 101.839 353.426 104.625 348.93 106.325C347.58 106.838 346.188 107.233 344.77 107.505C344.257 107.654 343.722 107.708 343.19 107.665C343.19 107.505 345.38 107.125 348.68 105.665C352.985 103.851 356.819 101.078 359.889 97.5561C362.958 94.0344 365.182 89.8575 366.39 85.3448C367.33 81.9248 367.41 79.6948 367.58 79.6948Z" fill="#455A64"/>
<path d="M318.08 57.4448C318.08 57.6048 316.63 57.9448 314.39 58.8348C308.512 61.1704 303.514 65.2903 300.1 70.6148C299.469 71.7668 298.778 72.885 298.03 73.9648C298.296 72.6523 298.805 71.4009 299.53 70.2748C301.128 67.4536 303.23 64.9489 305.73 62.8848C308.231 60.8222 311.093 59.2421 314.17 58.2248C315.416 57.7329 316.741 57.4687 318.08 57.4448Z" fill="#455A64"/>
<path d="M371.95 59.1945C372.18 59.1945 371.57 63.1945 368.42 66.9445C365.27 70.6945 361.42 71.9945 361.42 71.7645C361.42 71.5345 364.79 69.9045 367.73 66.3445C370.67 62.7845 371.67 59.1045 371.95 59.1945Z" fill="#455A64"/>
<path d="M223.96 307.824L232.22 302.754C233.622 301.902 235.23 301.449 236.87 301.444H252.87L269.39 316.494L274.32 318.954L272.48 344.954L261.74 343.634C261.74 343.634 238.81 344.634 236.59 343.144C234.37 341.654 231.16 336.974 231.16 336.974C231.16 336.974 218.59 332.904 217.36 331.804C212.69 327.614 214.57 326.614 214.57 326.614L212.42 325.614C212.02 326.374 208.89 321.274 209.22 318.714C209.41 317.224 208.97 317.234 208.97 317.234C207.928 316.636 207.03 315.816 206.339 314.833C205.648 313.85 205.18 312.728 204.97 311.544C204.74 310.024 210.97 311.114 210.97 311.114L226.5 311.324L223.96 307.824Z" fill="#CFA592"/>
<path d="M237.77 310.974L223.16 291.084C222.632 290.361 221.939 289.772 221.14 289.367C220.34 288.962 219.456 288.752 218.56 288.754H189.68C189.123 288.754 188.589 288.976 188.195 289.369C187.801 289.763 187.58 290.297 187.58 290.854C187.585 291.357 187.765 291.841 188.09 292.224L204.64 311.424L237.77 310.974Z" fill="#455A64"/>
<path d="M230.69 319.124C229.627 319.41 228.531 319.555 227.43 319.554C222.139 319.863 216.831 319.405 211.67 318.194C210.585 317.998 209.529 317.662 208.53 317.194C209.622 317.269 210.706 317.433 211.77 317.684C213.77 318.034 216.5 318.464 219.56 318.684C222.62 318.904 225.4 319.004 227.41 318.994C228.505 318.941 229.603 318.984 230.69 319.124Z" fill="#B6998D"/>
<path d="M234.84 327.835C233.777 328.118 232.681 328.263 231.58 328.265C228.938 328.423 226.287 328.386 223.65 328.155C221.01 327.929 218.39 327.511 215.81 326.905C214.728 326.71 213.675 326.374 212.68 325.905C213.772 325.98 214.855 326.144 215.92 326.395C217.92 326.745 220.65 327.175 223.71 327.395C226.77 327.615 229.55 327.715 231.56 327.705C232.655 327.651 233.753 327.695 234.84 327.835Z" fill="#B6998D"/>
<path d="M205.01 311.544C205.131 312.161 205.291 312.769 205.49 313.364C206.146 315.01 207.415 316.336 209.03 317.064L209.14 317.114V317.234C209.105 318.994 209.492 320.736 210.27 322.314C211.231 324.255 212.82 325.813 214.78 326.734L215.05 326.854L214.92 327.104C214.77 327.416 214.692 327.758 214.692 328.104C214.692 328.451 214.77 328.792 214.92 329.104C215.26 329.778 215.745 330.369 216.34 330.834C217.662 331.852 219.115 332.686 220.66 333.314C224.084 334.735 227.628 335.847 231.25 336.634H231.39L231.46 336.754C232.387 338.099 233.479 339.322 234.71 340.394C235.894 341.569 237.351 342.431 238.95 342.904C240.182 343.208 241.452 343.336 242.72 343.284L246.52 343.384L253.85 343.584L267.05 343.954H267.1L282.83 347.164L287.2 348.104L288.34 348.374C288.476 348.39 288.608 348.431 288.73 348.494C288.597 348.51 288.463 348.51 288.33 348.494L287.17 348.314L282.76 347.534L266.98 344.534H267.03L253.83 344.254L246.51 344.084L242.7 343.994C241.374 344.035 240.048 343.894 238.76 343.574C237.057 343.075 235.504 342.161 234.24 340.914C232.965 339.8 231.84 338.526 230.89 337.124L231.1 337.274C227.439 336.469 223.861 335.328 220.41 333.864C218.815 333.204 217.318 332.329 215.96 331.264C215.292 330.725 214.756 330.041 214.39 329.264C214.217 328.879 214.132 328.46 214.142 328.038C214.153 327.615 214.258 327.201 214.45 326.824L214.59 327.194C212.526 326.203 210.862 324.538 209.87 322.474C209.088 320.821 208.721 319.002 208.8 317.174L208.91 317.344C208.074 316.954 207.326 316.398 206.71 315.711C206.095 315.023 205.626 314.218 205.33 313.344C205.114 312.769 205.005 312.159 205.01 311.544Z" fill="#B6998D"/>
<path d="M239.57 335.485C239.65 335.645 237.71 336.635 235.08 336.985C232.45 337.335 230.33 336.895 230.36 336.725C230.39 336.555 232.47 336.635 234.99 336.285C237.51 335.935 239.5 335.295 239.57 335.485Z" fill="#B6998D"/>
<path d="M246.99 310.945C246.99 311.135 243.82 311.405 239.88 311.555C235.94 311.705 232.75 311.655 232.75 311.455C232.75 311.255 235.92 310.995 239.86 310.845C243.8 310.695 246.99 310.745 246.99 310.945Z" fill="#B6998D"/>
<path d="M274.01 316.825C274.01 316.825 273.71 317.115 273.01 317.225C272.006 317.333 270.994 317.108 270.13 316.585C268.922 315.796 267.794 314.891 266.76 313.885L262.82 310.435L255.62 304.245C254.575 303.444 253.598 302.558 252.7 301.595C253.848 302.245 254.929 303.005 255.93 303.865C257.86 305.345 260.48 307.465 263.29 309.865C264.69 311.085 266.01 312.265 267.19 313.355C268.176 314.361 269.243 315.284 270.38 316.115C271.15 316.63 272.054 316.908 272.98 316.915C273.64 316.925 273.99 316.765 274.01 316.825Z" fill="#B6998D"/>
<path d="M234.69 311.404C234.545 311.275 234.415 311.131 234.3 310.974L233.3 309.694L229.5 304.904L224.02 297.764L220.8 293.544C220.232 292.853 219.485 292.33 218.64 292.034C218.208 291.884 217.757 291.793 217.3 291.764C216.85 291.764 216.3 291.764 215.86 291.764L195.86 291.684L189.79 291.604H188.14C187.945 291.609 187.751 291.592 187.56 291.554C187.75 291.51 187.945 291.493 188.14 291.504L189.79 291.454L195.86 291.364L215.86 291.294C216.36 291.294 216.86 291.294 217.34 291.294C217.841 291.329 218.336 291.43 218.81 291.594C219.742 291.927 220.565 292.508 221.19 293.274L224.4 297.524L229.79 304.734C231.28 306.734 232.5 308.404 233.39 309.624C233.78 310.164 234.09 310.624 234.39 310.964C234.508 311.098 234.609 311.246 234.69 311.404Z" fill="#263238"/>
<path d="M203.28 294.585C203.466 294.442 203.689 294.357 203.923 294.34C204.156 294.324 204.39 294.377 204.593 294.492C204.797 294.608 204.962 294.781 205.068 294.99C205.174 295.199 205.215 295.435 205.188 295.667C205.16 295.9 205.065 296.119 204.913 296.298C204.762 296.476 204.561 296.606 204.336 296.671C204.111 296.736 203.871 296.733 203.648 296.662C203.425 296.592 203.227 296.457 203.08 296.275C202.894 296.03 202.807 295.724 202.837 295.418C202.866 295.112 203.01 294.829 203.24 294.625" fill="#F5F5F5"/>
<path d="M358.08 169.564L398.76 193.474L406.24 325.474L415.96 400.154H269.76C269.76 400.154 271.37 309.264 271.87 281.774C272.23 262.504 271.71 225.154 278.23 202.184C281.01 192.394 308.23 179.744 308.23 179.744C323.14 192.914 339.81 188.984 358.08 169.564Z" fill="#6744E3"/>
<path d="M411.66 367.155C411.66 367.295 380.1 367.415 341.16 367.415C302.22 367.415 270.66 367.295 270.66 367.155C270.66 367.015 302.22 366.895 341.16 366.895C380.1 366.895 411.66 367.005 411.66 367.155Z" fill="white"/>
<g opacity="0.3">
<path opacity="0.3" d="M270.57 344.695C281.89 354.185 299.48 359.325 313.96 362.255C328.44 365.185 343.23 366.255 357.75 368.915C367.9 370.805 378.55 373.475 388.34 370.175C393.214 368.444 397.488 365.349 400.655 361.26C403.821 357.17 405.746 352.257 406.2 347.105C406.273 346.759 406.271 346.402 406.195 346.057C406.12 345.712 405.971 345.388 405.76 345.105C405.469 344.883 405.134 344.724 404.778 344.638C404.421 344.551 404.051 344.54 403.69 344.605C359.98 346.545 313.69 346.275 270.57 344.665" fill="black"/>
</g>
<path d="M262.83 317.335H364.99L365.49 263.505L412.63 257.425C412.63 257.425 412.84 312.095 412.84 330.025C412.84 351.545 394.24 366.505 378.62 364.205C363 361.905 262.83 343.205 262.83 343.205V317.335Z" fill="#CFA592"/>
<path d="M415.9 268.605L360.96 274.315V209.855C360.96 209.855 366.36 188.075 385.34 188.985C404.32 189.895 415.5 210.425 415.9 229.255C416.3 248.085 415.9 268.605 415.9 268.605Z" fill="#6744E3"/>
<path d="M284.04 194.625C284.04 194.625 266.43 206.215 261.71 219.005C256.76 232.415 249.81 275.855 249.81 275.855H274.5L284.04 194.625Z" fill="#6744E3"/>
<path d="M360.5 212.415C360.565 213.197 360.565 213.983 360.5 214.765C360.45 216.395 360.38 218.555 360.3 221.175C360.14 226.575 359.97 234.045 359.99 242.295C360.01 250.545 360.23 258.015 360.44 263.415C360.54 266.035 360.62 268.195 360.68 269.825C360.741 270.607 360.741 271.392 360.68 272.175C360.523 271.404 360.429 270.621 360.4 269.835C360.26 268.335 360.09 266.145 359.93 263.445C359.6 258.035 359.31 250.565 359.28 242.295C359.25 234.025 359.5 226.555 359.8 221.145C359.94 218.445 360.09 216.265 360.22 214.755C360.253 213.968 360.347 213.186 360.5 212.415Z" fill="#263238"/>
<path d="M388.16 190.025C388.16 190.165 386.32 189.675 383.34 189.725C379.46 189.765 375.664 190.857 372.356 192.886C369.049 194.915 366.354 197.804 364.56 201.245C363.17 203.875 362.78 205.715 362.65 205.685C362.658 205.243 362.732 204.805 362.87 204.385C363.171 203.225 363.59 202.099 364.12 201.025C365.846 197.415 368.578 194.38 371.988 192.287C375.398 190.193 379.34 189.13 383.34 189.225C384.54 189.246 385.736 189.383 386.91 189.635C387.344 189.699 387.766 189.831 388.16 190.025Z" fill="#263238"/>
<path d="M272.73 224.984C272.777 225.225 272.8 225.469 272.8 225.714C272.8 226.274 272.8 226.964 272.86 227.804C272.86 229.614 272.92 232.234 272.92 235.474C272.92 241.954 272.82 250.904 272.63 260.784C272.44 270.664 272.25 279.514 272.12 286.084C272.06 289.244 272.01 291.844 271.97 293.754C271.97 294.594 271.91 295.284 271.89 295.844C271.903 296.087 271.879 296.329 271.82 296.564C271.768 296.328 271.744 296.086 271.75 295.844C271.75 295.284 271.75 294.594 271.69 293.754C271.69 291.944 271.63 289.324 271.63 286.084C271.63 279.604 271.73 270.654 271.92 260.764C272.11 250.874 272.29 242.034 272.42 235.474C272.49 232.304 272.54 229.714 272.58 227.804C272.58 226.964 272.64 226.274 272.65 225.714C272.642 225.468 272.669 225.223 272.73 224.984Z" fill="#263238"/>
<path d="M272.1 246.574C269.32 246.81 266.528 246.873 263.74 246.765C260.949 246.825 258.157 246.711 255.38 246.425C258.16 246.189 260.952 246.126 263.74 246.235C266.531 246.168 269.323 246.282 272.1 246.574Z" fill="white"/>
<path d="M359.56 231.695C359.56 231.835 340.56 231.955 317.21 231.955C293.86 231.955 274.84 231.835 274.84 231.695C274.84 231.555 293.84 231.435 317.21 231.435C340.58 231.435 359.56 231.525 359.56 231.695Z" fill="white"/>
<path d="M414.71 222.874C414.524 222.896 414.336 222.896 414.15 222.874L412.57 222.744L406.77 222.244C401.86 221.834 395.08 221.385 387.58 221.175C380.08 220.965 373.28 221.055 368.36 221.175L362.53 221.354H360.95C360.764 221.382 360.576 221.382 360.39 221.354C360.57 221.307 360.754 221.28 360.94 221.274L362.52 221.134C363.9 221.024 365.88 220.904 368.35 220.784C373.27 220.554 380.07 220.424 387.59 220.624C395.11 220.824 401.9 221.344 406.8 221.844C409.25 222.094 411.23 222.325 412.59 222.515L414.16 222.735C414.349 222.757 414.534 222.804 414.71 222.874Z" fill="white"/>
<path d="M415.23 261.065C415.23 261.215 402.82 261.065 387.53 260.705C372.24 260.345 359.82 259.955 359.83 259.815C359.84 259.675 372.23 259.815 387.54 260.185C402.85 260.555 415.23 260.925 415.23 261.065Z" fill="white"/>
<path d="M365.32 199.585C365.32 199.735 345.74 199.845 321.59 199.845C297.44 199.845 277.86 199.735 277.86 199.585C277.86 199.435 297.44 199.325 321.59 199.325C345.74 199.325 365.32 199.445 365.32 199.585Z" fill="white"/>
<path d="M359.84 272.244C359.84 272.384 340.2 272.504 315.97 272.504C291.74 272.504 272.1 272.384 272.1 272.244C272.1 272.104 291.74 271.984 315.97 271.984C340.2 271.984 359.84 272.094 359.84 272.244Z" fill="white"/>
<path d="M366.14 304.324C366.14 304.464 344.78 304.584 318.44 304.584C292.1 304.584 270.73 304.464 270.73 304.324C270.73 304.184 292.09 304.064 318.44 304.064C344.79 304.064 366.14 304.174 366.14 304.324Z" fill="white"/>
<path d="M414.43 396.824C414.43 396.964 382.22 397.084 342.5 397.084C302.78 397.084 270.57 396.964 270.57 396.824C270.57 396.684 302.77 396.564 342.5 396.564C382.23 396.564 414.43 396.694 414.43 396.824Z" fill="white"/>
<g opacity="0.3">
<path opacity="0.3" d="M360.29 274.925C359.65 262.185 360.11 250.265 359.46 237.535C355.122 256.217 353.074 275.358 353.36 294.535C353.43 299.085 353.65 303.715 355.12 308.025C356.59 312.335 360.66 316.025 364.82 317.865L365.22 274.375C363.35 274.515 362.17 274.835 360.29 274.925Z" fill="black"/>
</g>
<path d="M442.58 400.355C442.58 400.495 343.58 400.615 221.51 400.615C99.4399 400.615 0.419922 400.495 0.419922 400.355C0.419922 400.215 99.4199 400.095 221.51 400.095C343.6 400.095 442.58 400.205 442.58 400.355Z" fill="#263238"/>
<path d="M77.2199 353.175L70.0099 400.545H28.1199L18.3999 353.855L77.2199 353.175Z" fill="#6744E3"/>
<path d="M24.2603 383.535C24.2603 383.675 34.9903 383.785 48.2603 383.785C61.5303 383.785 72.2603 383.675 72.2603 383.535C72.2603 383.395 61.5303 383.295 48.2603 383.295C34.9903 383.295 24.2603 383.405 24.2603 383.535Z" fill="#FAFAFA"/>
<path d="M24.1001 381.205C24.1001 381.345 34.9001 381.455 48.2301 381.455C61.5601 381.455 72.3601 381.345 72.3601 381.205C72.3601 381.065 61.5601 380.965 48.2301 380.965C34.9001 380.965 24.1001 381.075 24.1001 381.205Z" fill="#FAFAFA"/>
<path d="M24.1802 378.575C24.1802 378.715 34.9802 378.825 48.3102 378.825C61.6402 378.825 72.4402 378.715 72.4402 378.575C72.4402 378.435 61.6402 378.325 48.3102 378.325C34.9802 378.325 24.1802 378.435 24.1802 378.575Z" fill="#FAFAFA"/>
<path d="M65.2002 397.845C65.7809 395.881 66.2088 393.875 66.4802 391.845C66.9086 389.853 67.1762 387.83 67.2802 385.795C66.6909 387.757 66.2628 389.763 66.0002 391.795C65.5659 393.786 65.2983 395.81 65.2002 397.845Z" fill="#FAFAFA"/>
<path d="M62.3502 397.345C62.635 395.417 62.8086 393.473 62.8702 391.525C63.0816 389.586 63.1718 387.635 63.1402 385.685C62.6835 387.586 62.4288 389.53 62.3802 391.485C62.1572 393.432 62.1471 395.396 62.3502 397.345Z" fill="#FAFAFA"/>
<path d="M57.1499 397.345C58.1288 393.421 58.6026 389.388 58.5599 385.345C58.1788 387.328 57.9084 389.331 57.7499 391.345C57.4423 393.332 57.242 395.335 57.1499 397.345Z" fill="#FAFAFA"/>
<path d="M53.4999 397.595C54.1426 393.574 54.2737 389.489 53.8899 385.435C53.6731 387.454 53.5729 389.484 53.5899 391.515C53.4392 393.538 53.4091 395.568 53.4999 397.595Z" fill="#FAFAFA"/>
<path d="M47.0498 397.345C47.3667 395.442 47.5172 393.514 47.4998 391.585C47.6441 389.663 47.624 387.733 47.4398 385.815C47.1354 387.72 46.9883 389.646 46.9998 391.575C46.8615 393.497 46.8782 395.426 47.0498 397.345Z" fill="#FAFAFA"/>
<path d="M42.34 397.595C42.5776 395.604 42.6445 393.597 42.54 391.595C42.6054 389.607 42.5051 387.617 42.24 385.645C42.0155 387.637 41.952 389.643 42.05 391.645C41.9844 393.633 42.0814 395.623 42.34 397.595Z" fill="#FAFAFA"/>
<path d="M37.92 396.955C37.9698 394.875 37.8494 392.795 37.56 390.735C37.4393 388.66 37.1585 386.597 36.72 384.565C36.67 386.645 36.7904 388.725 37.08 390.785C37.2007 392.86 37.4815 394.923 37.92 396.955Z" fill="#FAFAFA"/>
<path d="M32.22 396.335C32.2125 394.549 31.9773 392.771 31.52 391.045C31.2188 389.285 30.6946 387.572 29.96 385.945C30.2253 387.7 30.5859 389.439 31.04 391.155C31.3322 392.903 31.7262 394.633 32.22 396.335Z" fill="#FAFAFA"/>
<path d="M36.2601 259.695C36.2479 259.774 36.2479 259.855 36.2601 259.935C36.2601 260.115 36.3701 260.335 36.4501 260.605C36.6501 261.225 36.9101 262.075 37.2501 263.155C37.5901 264.235 38.0401 265.625 38.4801 267.215C38.9201 268.805 39.4801 270.595 39.9901 272.615C40.5001 274.635 41.1001 276.825 41.6201 279.215C42.1401 281.605 42.6901 284.145 43.2401 286.845C44.2401 292.245 45.1601 298.215 45.8001 304.515C46.4401 310.815 46.7001 316.865 46.8001 322.365C46.8001 325.105 46.8001 327.715 46.7301 330.165C46.6601 332.615 46.5501 334.875 46.4301 336.955C46.3101 339.035 46.1501 340.895 46.0201 342.545C45.8901 344.195 45.7501 345.605 45.6101 346.765C45.4701 347.925 45.4001 348.765 45.3401 349.425C45.3401 349.705 45.3201 349.935 45.2801 350.115C45.2801 350.275 45.2801 350.355 45.2801 350.355C45.3137 350.282 45.334 350.204 45.3401 350.125C45.3401 349.945 45.4001 349.715 45.4501 349.435C45.5301 348.795 45.6601 347.905 45.8101 346.785C45.9601 345.665 46.1501 344.215 46.3001 342.575C46.4501 340.935 46.6701 339.055 46.7901 336.975C46.9101 334.895 47.0801 332.625 47.1401 330.175C47.2001 327.725 47.2501 325.115 47.2701 322.355C47.2101 316.855 46.9401 310.795 46.2701 304.475C45.6001 298.155 44.6901 292.165 43.6601 286.755C43.1001 284.055 42.6001 281.495 42.0001 279.115C41.4001 276.735 40.8601 274.525 40.3101 272.525C39.7601 270.525 39.2001 268.715 38.7201 267.135C38.2401 265.555 37.8001 264.195 37.4101 263.135C37.0201 262.075 36.7401 261.225 36.5301 260.605C36.4301 260.345 36.3501 260.125 36.2901 259.955C36.2858 259.868 36.2758 259.781 36.2601 259.695Z" fill="#263238"/>
<path d="M43.8199 289.025C42.6665 285.609 40.3617 282.7 37.2999 280.795C36.2999 280.155 34.9599 279.635 33.8599 280.165C32.3999 280.875 32.2799 282.925 32.7199 284.495C33.4796 287.156 35.1778 289.451 37.4999 290.955C39.5407 292.467 42.0966 293.11 44.6099 292.745" fill="#263238"/>
<path d="M46.3603 308.835C45.2803 304.745 42.0203 298.935 38.6303 296.395C38.111 295.971 37.5127 295.655 36.8703 295.465C36.5485 295.368 36.2076 295.354 35.8791 295.424C35.5505 295.494 35.2448 295.646 34.9903 295.865C34.7013 296.248 34.5117 296.697 34.4384 297.172C34.3651 297.647 34.4104 298.132 34.5703 298.585C35.2652 301.567 36.7763 304.297 38.9345 306.469C41.0926 308.642 43.8127 310.17 46.7903 310.885" fill="#263238"/>
<path d="M47.0601 326.265C45.3784 322.363 42.6858 318.979 39.2601 316.465C38.898 316.123 38.4702 315.858 38.0027 315.686C37.5352 315.514 37.0376 315.439 36.5401 315.465C35.0601 315.725 34.3901 317.535 34.5401 319.035C34.8101 322.115 37.1701 324.595 39.6001 326.505C41.8307 328.052 44.2547 329.299 46.8101 330.215" fill="#263238"/>
<path d="M46.6702 338.805C45.0447 335.824 42.7766 333.242 40.0302 331.245C39.4414 330.798 38.7567 330.493 38.0302 330.355C37.661 330.277 37.2773 330.305 36.9234 330.436C36.5694 330.567 36.2598 330.796 36.0302 331.095C35.3602 332.095 36.0302 333.395 36.7102 334.345C39.0516 337.604 42.3678 340.034 46.1802 341.285" fill="#263238"/>
<path d="M47.0002 333.695C49.8605 330.19 53.0408 326.96 56.5002 324.045C56.7308 323.778 57.0246 323.573 57.3547 323.449C57.6849 323.325 58.0409 323.286 58.3902 323.335C58.6427 323.44 58.8593 323.615 59.0138 323.841C59.1682 324.066 59.2538 324.332 59.2602 324.605C59.2602 325.155 59.1372 325.698 58.9002 326.195C57.7652 328.715 56.0774 330.946 53.9618 332.724C51.8463 334.502 49.3575 335.781 46.6802 336.465" fill="#263238"/>
<path d="M46.6899 317.405L54.1499 308.315C54.8061 307.404 55.6269 306.624 56.5699 306.015C57.0499 305.726 57.5996 305.573 58.1599 305.573C58.7203 305.573 59.27 305.726 59.7499 306.015C60.1794 306.372 60.5006 306.842 60.6773 307.372C60.854 307.902 60.8791 308.471 60.7499 309.015C60.4833 310.108 59.9854 311.131 59.2899 312.015C57.8414 314.217 56.009 316.141 53.8799 317.695C51.6899 319.205 49.6999 320.185 47.0699 319.795" fill="#263238"/>
<path d="M45.6602 299.035C47.1162 294.683 49.7049 290.796 53.1602 287.775C53.7111 287.221 54.4025 286.827 55.1602 286.635C55.9203 286.575 56.6776 286.782 57.3017 287.22C57.9259 287.658 58.3779 288.3 58.5802 289.035C58.8197 289.859 58.8829 290.723 58.7658 291.573C58.6486 292.422 58.3537 293.237 57.9002 293.965C56.9925 295.423 55.8025 296.684 54.4002 297.675C51.8877 299.592 49.0905 301.104 46.1102 302.155" fill="#263238"/>
<path d="M42.6802 282.695C43.4002 277.425 46.1402 273.035 49.3202 268.775C49.9902 267.875 50.9302 266.925 52.0302 267.095C52.3807 267.169 52.7072 267.329 52.9798 267.561C53.2523 267.794 53.4622 268.091 53.5902 268.425C53.8373 269.099 53.9362 269.819 53.8802 270.535C53.7438 273.728 52.6694 276.81 50.7913 279.396C48.9131 281.982 46.3145 283.958 43.3202 285.075" fill="#263238"/>
<path d="M40.5902 274.295C40.9348 271.596 41.0252 268.871 40.8602 266.155C40.6908 263.422 39.7551 260.791 38.1602 258.565C37.4936 257.61 36.5718 256.861 35.5002 256.405C34.9555 256.187 34.364 256.114 33.7826 256.191C33.2012 256.268 32.6494 256.493 32.1802 256.845C31.7832 257.217 31.4748 257.673 31.2775 258.181C31.0802 258.688 30.9991 259.232 31.0402 259.775C31.1401 260.855 31.4242 261.911 31.8802 262.895C33.8802 267.675 37.1802 272.965 40.6402 274.295" fill="#263238"/>
<path d="M73.07 280.575C73.0462 280.798 73.0462 281.022 73.07 281.245C73.07 281.735 73.07 282.365 73.07 283.155C73.07 283.945 73.07 285.005 73.02 286.155C72.97 287.305 73.02 288.675 72.88 290.155C72.75 293.155 72.46 296.635 72.01 300.535C71.56 304.435 70.8 308.695 69.89 313.145C68.98 317.595 67.89 321.745 66.72 325.505C65.55 329.265 64.41 332.585 63.34 335.355C62.84 336.745 62.34 337.985 61.87 339.075C61.4 340.165 61.03 341.075 60.69 341.865L59.95 343.625C59.8524 343.828 59.7721 344.039 59.71 344.255C59.8385 344.069 59.949 343.872 60.04 343.665C60.25 343.225 60.52 342.665 60.87 341.945C61.22 341.225 61.66 340.275 62.12 339.185C62.58 338.095 63.12 336.875 63.67 335.485C64.78 332.725 65.97 329.385 67.15 325.635C68.33 321.885 69.42 317.685 70.37 313.245C71.32 308.805 71.94 304.525 72.37 300.615C72.8 296.705 73.05 293.175 73.13 290.195C73.21 288.715 73.19 287.365 73.2 286.195C73.21 285.025 73.2 283.995 73.2 283.195C73.2 282.395 73.2 281.775 73.13 281.285C73.1388 281.047 73.1187 280.809 73.07 280.575Z" fill="#263238"/>
<path d="M71.8999 302.175C71.8491 299.604 70.9091 297.131 69.2399 295.175C68.9944 294.815 68.6648 294.52 68.2797 294.316C67.8946 294.112 67.4656 294.006 67.0299 294.005C65.8799 294.175 65.3599 295.545 65.3199 296.705C65.2586 298.674 65.9122 300.6 67.1599 302.125C68.224 303.591 69.8227 304.579 71.6099 304.875" fill="#263238"/>
<path d="M69.3699 316.215C69.5099 313.215 68.5399 308.535 66.7799 306.085C66.5166 305.688 66.1766 305.348 65.7799 305.085C65.5789 304.954 65.3488 304.875 65.1099 304.854C64.8709 304.833 64.6305 304.871 64.4099 304.965C64.1273 305.158 63.8989 305.42 63.7466 305.727C63.5943 306.033 63.5231 306.373 63.5399 306.715C63.3716 308.894 63.8127 311.077 64.8141 313.02C65.8154 314.962 67.3374 316.588 69.2099 317.715" fill="#263238"/>
<path d="M66.0899 328.235C65.7888 325.214 64.6877 322.328 62.8999 319.875C62.7209 319.569 62.4828 319.302 62.1996 319.089C61.9163 318.876 61.5935 318.722 61.2499 318.635C60.1899 318.495 59.3399 319.585 59.1099 320.635C58.6299 322.785 59.6999 324.975 60.9399 326.805C62.1282 328.336 63.5096 329.708 65.0499 330.885" fill="#263238"/>
<path d="M63.13 336.695C62.661 334.319 61.6743 332.076 60.24 330.125C59.9283 329.71 59.5288 329.368 59.07 329.125C58.8368 329.004 58.575 328.948 58.3125 328.964C58.05 328.979 57.7968 329.066 57.58 329.215C56.92 329.735 57.07 330.765 57.35 331.565C58.2514 334.298 60.0035 336.67 62.35 338.335" fill="#263238"/>
<path d="M64.5002 333.285C67.2002 331.513 70.0592 329.997 73.0402 328.755C73.2538 328.621 73.498 328.543 73.7499 328.529C74.0017 328.515 74.253 328.565 74.4802 328.675C74.621 328.796 74.7255 328.953 74.782 329.13C74.8385 329.306 74.8448 329.495 74.8002 329.675C74.683 330.049 74.4811 330.391 74.2102 330.675C72.8968 332.149 71.2678 333.307 69.4446 334.064C67.6215 334.82 65.651 335.156 63.6802 335.045" fill="#263238"/>
<path d="M67.75 322.115C70.0966 320.595 72.43 319.068 74.75 317.535C75.3969 317.069 76.1265 316.729 76.9 316.535C77.2843 316.402 77.7009 316.394 78.0902 316.511C78.4796 316.629 78.8218 316.867 79.0679 317.191C79.3141 317.514 79.4517 317.908 79.461 318.314C79.4704 318.721 79.351 319.12 79.12 319.455C78.7 320.137 78.1412 320.723 77.48 321.175C76.0149 322.388 74.3408 323.323 72.54 323.935C71.7367 324.277 70.8728 324.453 70 324.453C69.1271 324.453 68.2632 324.277 67.46 323.935" fill="#263238"/>
<path d="M71.0001 309.395C72.9333 306.748 75.5307 304.658 78.5301 303.335C79.019 303.088 79.5624 302.967 80.1101 302.985C80.6403 303.108 81.1112 303.412 81.4415 303.844C81.7719 304.277 81.9411 304.811 81.9201 305.355C81.9031 305.967 81.7582 306.569 81.4947 307.122C81.2312 307.675 80.8549 308.166 80.3901 308.565C79.4596 309.363 78.3781 309.965 77.2101 310.335C75.0873 311.102 72.8562 311.528 70.6001 311.595" fill="#263238"/>
<path d="M72.4999 297.605C74.1199 294.175 76.9299 291.775 80.0099 289.555C80.2973 289.277 80.6525 289.079 81.0403 288.98C81.428 288.882 81.8347 288.887 82.2199 288.995C82.4433 289.12 82.6317 289.299 82.768 289.515C82.9042 289.732 82.984 289.979 82.9999 290.235C83.0237 290.748 82.935 291.26 82.7399 291.735C81.9592 293.88 80.5642 295.747 78.7289 297.104C76.8936 298.461 74.6993 299.247 72.4199 299.365" fill="#263238"/>
<path d="M72.8798 291.465C73.6947 289.7 74.3409 287.862 74.8098 285.975C75.2852 284.078 75.2159 282.085 74.6098 280.225C74.3429 279.444 73.8653 278.752 73.2299 278.225C72.9054 277.959 72.518 277.78 72.1047 277.707C71.6915 277.633 71.2663 277.667 70.8698 277.805C70.5203 277.973 70.2131 278.218 69.9708 278.521C69.7284 278.824 69.5573 279.177 69.4698 279.555C69.2964 280.309 69.2625 281.089 69.3698 281.855C69.6898 285.535 70.8098 289.855 72.8798 291.515" fill="#263238"/>
<path d="M20.11 280.115C20.095 280.338 20.095 280.562 20.11 280.785C20.11 281.275 20.06 281.905 20.04 282.695C20.02 283.485 19.98 284.545 20.04 285.695C20.1 286.845 20.04 288.225 20.11 289.695C20.2 292.695 20.45 296.205 20.87 300.115C21.29 304.025 21.99 308.305 22.87 312.745C23.75 317.185 24.93 321.375 26.08 325.135C27.23 328.895 28.45 332.225 29.57 334.985C30.1 336.375 30.65 337.595 31.12 338.685C31.59 339.775 32 340.685 32.37 341.445L33.2 343.165C33.2857 343.373 33.3929 343.57 33.52 343.755C33.4592 343.54 33.3823 343.329 33.29 343.125L32.5 341.405C32.16 340.645 31.76 339.715 31.33 338.615C30.9 337.515 30.33 336.285 29.85 334.895C28.78 332.125 27.63 328.785 26.47 325.045C25.31 321.305 24.24 317.115 23.3 312.695C22.36 308.275 21.72 304.005 21.23 300.115C20.74 296.225 20.5 292.695 20.37 289.695C20.27 288.215 20.26 286.875 20.22 285.695C20.18 284.515 20.22 283.495 20.22 282.695C20.22 281.895 20.22 281.275 20.22 280.785C20.2118 280.558 20.1748 280.333 20.11 280.115Z" fill="#455A64"/>
<path d="M21.2798 301.695C21.33 299.122 22.274 296.647 23.9498 294.695C24.1925 294.334 24.5201 294.039 24.9037 293.835C25.2873 293.631 25.7153 293.525 26.1498 293.525C27.2998 293.695 27.8198 295.065 27.8598 296.225C27.937 298.21 27.2862 300.156 26.0298 301.695C24.9625 303.162 23.3602 304.15 21.5698 304.445" fill="#455A64"/>
<path d="M23.8102 315.755C23.6702 312.755 24.6402 308.075 26.4002 305.625C26.6641 305.229 27.004 304.889 27.4002 304.625C27.5993 304.494 27.8277 304.415 28.0651 304.394C28.3024 304.373 28.5413 304.411 28.7602 304.505C29.0428 304.698 29.2712 304.96 29.4235 305.267C29.5758 305.573 29.647 305.913 29.6302 306.255C29.8009 308.435 29.3607 310.618 28.3591 312.561C27.3576 314.504 25.8343 316.13 23.9602 317.255" fill="#455A64"/>
<path d="M27.0898 327.775C27.399 324.754 28.5032 321.87 30.2898 319.415C30.4673 319.11 30.7036 318.843 30.9852 318.63C31.2668 318.417 31.5879 318.262 31.9298 318.175C32.9998 318.035 33.8398 319.125 34.0798 320.175C34.5598 322.325 33.4898 324.525 32.2398 326.345C31.0544 327.879 29.6726 329.251 28.1298 330.425" fill="#455A64"/>
<path d="M30.0601 336.225C30.5257 333.86 31.513 331.629 32.9501 329.695C33.2582 329.28 33.6543 328.938 34.1101 328.695C34.3432 328.573 34.6051 328.518 34.8675 328.533C35.13 328.549 35.3832 328.636 35.6001 328.785C36.2601 329.305 36.1201 330.345 35.8401 331.135C34.9342 333.865 33.1831 336.236 30.8401 337.905" fill="#455A64"/>
<path d="M28.7398 332.825C26.0363 331.053 23.174 329.537 20.1898 328.295C19.9762 328.161 19.732 328.083 19.4802 328.069C19.2283 328.055 18.977 328.105 18.7498 328.215C18.6017 328.341 18.4934 328.507 18.4384 328.694C18.3833 328.88 18.3838 329.079 18.4398 329.265C18.5534 329.639 18.7519 329.981 19.0198 330.265C20.3337 331.738 21.9627 332.896 23.7858 333.653C25.6089 334.409 27.5791 334.745 29.5498 334.635" fill="#455A64"/>
<path d="M25.4299 321.695L18.4299 317.115C17.7854 316.651 17.0595 316.311 16.2899 316.115C15.9026 316.014 15.4948 316.022 15.1118 316.139C14.7289 316.255 14.3856 316.475 14.1199 316.775C13.8992 317.109 13.7774 317.498 13.7686 317.898C13.7597 318.298 13.8642 318.692 14.0699 319.035C14.4842 319.692 15.0287 320.257 15.6699 320.695C17.1363 321.906 18.8101 322.841 20.6099 323.455C21.4149 323.797 22.2804 323.973 23.1549 323.973C24.0295 323.973 24.895 323.797 25.6999 323.455" fill="#455A64"/>
<path d="M22.1802 308.935C20.2515 306.284 17.6528 304.192 14.6502 302.875C14.1649 302.628 13.6247 302.507 13.0802 302.525C12.549 302.648 12.077 302.951 11.745 303.384C11.4129 303.816 11.2415 304.35 11.2602 304.895C11.2772 305.507 11.4221 306.109 11.6856 306.662C11.9491 307.215 12.3253 307.706 12.7902 308.105C13.7206 308.903 14.8021 309.505 15.9702 309.875C18.093 310.642 20.324 311.068 22.5802 311.135" fill="#455A64"/>
<path d="M20.69 297.145C19.06 293.715 16.25 291.315 13.17 289.095C12.8832 288.816 12.528 288.617 12.14 288.519C11.7521 288.421 11.3451 288.426 10.96 288.535C10.7391 288.662 10.5532 288.842 10.4188 289.058C10.2844 289.275 10.2058 289.521 10.19 289.775C10.1627 290.287 10.2481 290.799 10.44 291.275C11.2218 293.419 12.6172 295.286 14.4522 296.643C16.2873 297.999 18.481 298.786 20.76 298.905" fill="#455A64"/>
<path d="M20.31 291.005C19.4919 289.24 18.8424 287.402 18.37 285.515C17.8978 283.617 17.9706 281.624 18.58 279.765C18.8276 278.955 19.3074 278.235 19.96 277.695C20.2824 277.429 20.6682 277.25 21.0799 277.177C21.4915 277.103 21.9153 277.137 22.31 277.275C22.6609 277.443 22.9698 277.687 23.2138 277.99C23.4579 278.293 23.6308 278.646 23.72 279.025C23.8834 279.78 23.9172 280.558 23.82 281.325C23.49 285.015 22.38 289.325 20.31 290.985" fill="#455A64"/>
<path d="M82.0201 343.795V352.695C82.0201 353.153 81.9299 353.607 81.7545 354.03C81.5791 354.454 81.322 354.839 80.9979 355.163C80.6739 355.487 80.2891 355.744 79.8657 355.919C79.4423 356.095 78.9884 356.185 78.5301 356.185H17.8801C17.4218 356.185 16.968 356.095 16.5446 355.919C16.1211 355.744 15.7364 355.487 15.4123 355.163C15.0883 354.839 14.8312 354.454 14.6558 354.03C14.4804 353.607 14.3901 353.153 14.3901 352.695V343.795H82.0201Z" fill="#6744E3"/>
<g opacity="0.4">
<path opacity="0.4" d="M76.7599 356.145L76.2599 358.965L20.2999 362.955L18.8799 356.145H76.7599Z" fill="black"/>
</g>
</svg>
