<svg width="80" height="80" viewBox="0 0 80 80" fill="none" xmlns="http://www.w3.org/2000/svg">
<path d="M10 75H7.5C6.17392 75 4.90215 74.4732 3.96447 73.5355C3.02678 72.5979 2.5 71.3261 2.5 70V17.5C2.5 16.1739 3.02678 14.9021 3.96447 13.9645C4.90215 13.0268 6.17392 12.5 7.5 12.5H10C11.3261 12.5 12.5979 13.0268 13.5355 13.9645C14.4732 14.9021 15 16.1739 15 17.5V70C15 71.3261 14.4732 72.5979 13.5355 73.5355C12.5979 74.4732 11.3261 75 10 75Z" fill="#51628E"/>
<path d="M37.5 27.5C37.5 26.1739 36.9732 24.9021 36.0355 23.9645C35.0978 23.0268 33.8261 22.5 32.5 22.5H22.5C21.1739 22.5 19.9021 23.0268 18.9645 23.9645C18.0268 24.9021 17.5 26.1739 17.5 27.5V31.875C17.5 32.0408 17.5658 32.1997 17.6831 32.3169C17.8003 32.4342 17.9592 32.5 18.125 32.5H36.875C37.0408 32.5 37.1997 32.4342 37.3169 32.3169C37.4342 32.1997 37.5 32.0408 37.5 31.875V27.5Z" fill="#51628E"/>
<path d="M17.5 70C17.5 71.3261 18.0268 72.5979 18.9645 73.5355C19.9021 74.4732 21.1739 75 22.5 75H32.5C33.8261 75 35.0978 74.4732 36.0355 73.5355C36.9732 72.5979 37.5 71.3261 37.5 70V65.3125C37.5 65.2296 37.4671 65.1501 37.4085 65.0915C37.3499 65.0329 37.2704 65 37.1875 65H17.8125C17.7296 65 17.6501 65.0329 17.5915 65.0915C17.5329 65.1501 17.5 65.2296 17.5 65.3125V70Z" fill="#51628E"/>
<path d="M37.1875 37.5H17.8125C17.6399 37.5 17.5 37.6399 17.5 37.8125V59.6875C17.5 59.8601 17.6399 60 17.8125 60H37.1875C37.3601 60 37.5 59.8601 37.5 59.6875V37.8125C37.5 37.6399 37.3601 37.5 37.1875 37.5Z" fill="#51628E"/>
<path d="M50 75H45C43.6739 75 42.4021 74.4732 41.4645 73.5355C40.5268 72.5979 40 71.3261 40 70V10C40 8.67392 40.5268 7.40215 41.4645 6.46447C42.4021 5.52678 43.6739 5 45 5H50C51.3261 5 52.5978 5.52678 53.5355 6.46447C54.4732 7.40215 55 8.67392 55 10V70C55 71.3261 54.4732 72.5979 53.5355 73.5355C52.5978 74.4732 51.3261 75 50 75Z" fill="#51628E"/>
<path d="M77.4828 69.6016L72.4469 16.4766C72.2156 14.0312 69.8 12.2578 67.0516 12.5219L62.075 12.9906C59.3266 13.2516 57.2859 15.4453 57.5172 17.8906L62.5531 71.0156C62.7844 73.4609 65.2 75.2344 67.9484 74.9703L72.925 74.5016C75.6734 74.2406 77.7141 72.0469 77.4828 69.6016Z" fill="#51628E"/>
</svg>
