<svg width="80" height="80" viewBox="0 0 80 80" fill="none" xmlns="http://www.w3.org/2000/svg">
<path d="M68.125 12.5H11.875C10.0523 12.5021 8.30479 13.2271 7.01592 14.5159C5.72706 15.8048 5.00207 17.5523 5 19.375V60.625C5.00207 62.4477 5.72706 64.1952 7.01592 65.4841C8.30479 66.7729 10.0523 67.4979 11.875 67.5H68.125C69.9477 67.4979 71.6952 66.7729 72.9841 65.4841C74.2729 64.1952 74.9979 62.4477 75 60.625V19.375C74.9979 17.5523 74.2729 15.8048 72.9841 14.5159C71.6952 13.2271 69.9477 12.5021 68.125 12.5ZM17.5 60.625C17.5 61.1223 17.3025 61.5992 16.9508 61.9508C16.5992 62.3025 16.1223 62.5 15.625 62.5H11.875C11.3777 62.5 10.9008 62.3025 10.5492 61.9508C10.1975 61.5992 10 61.1223 10 60.625V56.875C10 56.3777 10.1975 55.9008 10.5492 55.5492C10.9008 55.1975 11.3777 55 11.875 55H15.625C16.1223 55 16.5992 55.1975 16.9508 55.5492C17.3025 55.9008 17.5 56.3777 17.5 56.875V60.625ZM17.5 48.125C17.5 48.6223 17.3025 49.0992 16.9508 49.4508C16.5992 49.8025 16.1223 50 15.625 50H11.875C11.3777 50 10.9008 49.8025 10.5492 49.4508C10.1975 49.0992 10 48.6223 10 48.125V44.375C10 43.8777 10.1975 43.4008 10.5492 43.0492C10.9008 42.6975 11.3777 42.5 11.875 42.5H15.625C16.1223 42.5 16.5992 42.6975 16.9508 43.0492C17.3025 43.4008 17.5 43.8777 17.5 44.375V48.125ZM17.5 35.625C17.5 36.1223 17.3025 36.5992 16.9508 36.9508C16.5992 37.3025 16.1223 37.5 15.625 37.5H11.875C11.3777 37.5 10.9008 37.3025 10.5492 36.9508C10.1975 36.5992 10 36.1223 10 35.625V31.875C10 31.3777 10.1975 30.9008 10.5492 30.5492C10.9008 30.1975 11.3777 30 11.875 30H15.625C16.1223 30 16.5992 30.1975 16.9508 30.5492C17.3025 30.9008 17.5 31.3777 17.5 31.875V35.625ZM17.5 23.125C17.5 23.6223 17.3025 24.0992 16.9508 24.4508C16.5992 24.8025 16.1223 25 15.625 25H11.875C11.3777 25 10.9008 24.8025 10.5492 24.4508C10.1975 24.0992 10 23.6223 10 23.125V19.375C10 18.8777 10.1975 18.4008 10.5492 18.0492C10.9008 17.6975 11.3777 17.5 11.875 17.5H15.625C16.1223 17.5 16.5992 17.6975 16.9508 18.0492C17.3025 18.4008 17.5 18.8777 17.5 19.375V23.125ZM55.2625 42.5H24.7375C24.0745 42.5 23.4386 42.2366 22.9697 41.7678C22.5009 41.2989 22.2375 40.663 22.2375 40C22.2375 39.337 22.5009 38.7011 22.9697 38.2322C23.4386 37.7634 24.0745 37.5 24.7375 37.5H55.2625C55.9255 37.5 56.5614 37.7634 57.0303 38.2322C57.4991 38.7011 57.7625 39.337 57.7625 40C57.7625 40.663 57.4991 41.2989 57.0303 41.7678C56.5614 42.2366 55.9255 42.5 55.2625 42.5ZM70 60.625C70 61.1223 69.8025 61.5992 69.4508 61.9508C69.0992 62.3025 68.6223 62.5 68.125 62.5H64.375C63.8777 62.5 63.4008 62.3025 63.0492 61.9508C62.6975 61.5992 62.5 61.1223 62.5 60.625V56.875C62.5 56.3777 62.6975 55.9008 63.0492 55.5492C63.4008 55.1975 63.8777 55 64.375 55H68.125C68.6223 55 69.0992 55.1975 69.4508 55.5492C69.8025 55.9008 70 56.3777 70 56.875V60.625ZM70 48.125C70 48.6223 69.8025 49.0992 69.4508 49.4508C69.0992 49.8025 68.6223 50 68.125 50H64.375C63.8777 50 63.4008 49.8025 63.0492 49.4508C62.6975 49.0992 62.5 48.6223 62.5 48.125V44.375C62.5 43.8777 62.6975 43.4008 63.0492 43.0492C63.4008 42.6975 63.8777 42.5 64.375 42.5H68.125C68.6223 42.5 69.0992 42.6975 69.4508 43.0492C69.8025 43.4008 70 43.8777 70 44.375V48.125ZM70 35.625C70 36.1223 69.8025 36.5992 69.4508 36.9508C69.0992 37.3025 68.6223 37.5 68.125 37.5H64.375C63.8777 37.5 63.4008 37.3025 63.0492 36.9508C62.6975 36.5992 62.5 36.1223 62.5 35.625V31.875C62.5 31.3777 62.6975 30.9008 63.0492 30.5492C63.4008 30.1975 63.8777 30 64.375 30H68.125C68.6223 30 69.0992 30.1975 69.4508 30.5492C69.8025 30.9008 70 31.3777 70 31.875V35.625ZM70 23.125C70 23.6223 69.8025 24.0992 69.4508 24.4508C69.0992 24.8025 68.6223 25 68.125 25H64.375C63.8777 25 63.4008 24.8025 63.0492 24.4508C62.6975 24.0992 62.5 23.6223 62.5 23.125V19.375C62.5 18.8777 62.6975 18.4008 63.0492 18.0492C63.4008 17.6975 63.8777 17.5 64.375 17.5H68.125C68.6223 17.5 69.0992 17.6975 69.4508 18.0492C69.8025 18.4008 70 18.8777 70 19.375V23.125Z" fill="#E73F5D"/>
</svg>
