<svg width="80" height="80" viewBox="0 0 80 80" fill="none" xmlns="http://www.w3.org/2000/svg">
<path d="M40.0023 36.4644L45.3852 31.0815C40.3265 25.2034 37.5474 17.7039 37.5539 9.94873C37.5539 9.16748 37.5836 8.37842 37.6383 7.60498C30.7131 8.09298 24.1285 10.7953 18.857 15.3128L40.0023 36.4644Z" fill="#669E5A"/>
<path d="M48.9305 27.5362L61.1477 15.3128C55.9526 10.8597 49.4795 8.16827 42.6586 7.62529C42.5945 8.39092 42.5586 9.16592 42.5586 9.94873C42.5522 16.3774 44.8078 22.6035 48.9305 27.5362Z" fill="#669E5A"/>
<path d="M52.4664 31.0722C57.3985 35.1965 63.6246 37.4538 70.0539 37.4487C70.8352 37.4487 71.6164 37.4128 72.3773 37.3487C71.8353 30.5262 69.1438 24.0513 64.6898 18.855L52.4664 31.0722Z" fill="#669E5A"/>
<path d="M27.5383 48.9284C22.6063 44.8039 16.3801 42.5465 9.95078 42.5519C9.16745 42.5519 8.39297 42.5852 7.62734 42.6519C8.16936 49.4744 10.8608 55.9492 15.3148 61.1456L27.5383 48.9284Z" fill="#669E5A"/>
<path d="M40.0023 43.5362L34.6195 48.919C39.6782 54.7972 42.4573 62.2967 42.4508 70.0519C42.4508 70.8331 42.4211 71.6222 42.3664 72.3956C49.2917 71.9079 55.8764 69.2056 61.1477 64.6878L40.0023 43.5362Z" fill="#669E5A"/>
<path d="M70.0539 42.4487C62.2988 42.4552 54.7992 39.6761 48.9211 34.6175L43.5383 40.0003L64.6898 61.1456C69.2107 55.8754 71.9164 49.2906 72.407 42.3644C71.6242 42.419 70.8414 42.4487 70.0539 42.4487Z" fill="#669E5A"/>
<path d="M36.4664 40.0003L15.3148 18.855C10.7937 24.1251 8.08797 30.7099 7.59766 37.6362C8.37891 37.5815 9.16016 37.5519 9.94141 37.5519C17.6965 37.5454 25.1961 40.3245 31.0742 45.3831L36.4664 40.0003Z" fill="#669E5A"/>
<path d="M18.857 64.6878C24.0521 69.1409 30.5252 71.8323 37.3461 72.3753C37.4117 71.6097 37.4451 70.8352 37.4461 70.0519C37.4515 63.6225 35.1941 57.3963 31.0695 52.4644L18.857 64.6878Z" fill="#669E5A"/>
</svg>
