<svg width="80" height="80" viewBox="0 0 80 80" fill="none" xmlns="http://www.w3.org/2000/svg">
<path d="M68.7359 17.5H65.0141C65.0103 17.5 65.0068 17.5015 65.0041 17.5041C65.0015 17.5068 65 17.5103 65 17.5141V65C65 66.3261 65.5268 67.5979 66.4645 68.5355C67.4021 69.4732 68.6739 70 70 70C71.3261 70 72.5979 69.4732 73.5355 68.5355C74.4732 67.5979 75 66.3261 75 65V23.7641C75 22.1027 74.34 20.5094 73.1653 19.3347C71.9906 18.16 70.3973 17.5 68.7359 17.5Z" fill="#84C2C2"/>
<path d="M60 65V11.25C60 10.4292 59.8383 9.61651 59.5242 8.85823C59.2102 8.09994 58.7498 7.41095 58.1694 6.83058C57.5891 6.25022 56.9001 5.78984 56.1418 5.47575C55.3835 5.16166 54.5708 5 53.75 5H11.25C9.5924 5 8.00269 5.65848 6.83058 6.83058C5.65848 8.00269 5 9.5924 5 11.25V66.25C5 68.5706 5.92187 70.7962 7.56282 72.4372C9.20376 74.0781 11.4294 75 13.75 75H67.3203C67.344 75.0002 67.3674 74.9957 67.3893 74.9867C67.4112 74.9778 67.4311 74.9646 67.4478 74.9478C67.4646 74.9311 67.4778 74.9112 67.4867 74.8893C67.4957 74.8674 67.5002 74.844 67.5 74.8203C67.4999 74.781 67.4868 74.7429 67.4628 74.7118C67.4388 74.6807 67.4052 74.6584 67.3672 74.6484C65.2524 74.0683 63.3864 72.8102 62.0556 71.0673C60.7247 69.3244 60.0026 67.1929 60 65ZM15 20C15 19.337 15.2634 18.7011 15.7322 18.2322C16.2011 17.7634 16.837 17.5 17.5 17.5H27.5C28.163 17.5 28.7989 17.7634 29.2678 18.2322C29.7366 18.7011 30 19.337 30 20V30C30 30.663 29.7366 31.2989 29.2678 31.7678C28.7989 32.2366 28.163 32.5 27.5 32.5H17.5C16.837 32.5 16.2011 32.2366 15.7322 31.7678C15.2634 31.2989 15 30.663 15 30V20ZM47.5 62.5H17.5703C16.225 62.5 15.0703 61.4656 15.0031 60.1203C14.9868 59.7823 15.0393 59.4445 15.1575 59.1273C15.2756 58.8102 15.4569 58.5204 15.6903 58.2754C15.9238 58.0304 16.2046 57.8353 16.5156 57.702C16.8267 57.5688 17.1616 57.5 17.5 57.5H47.4297C48.775 57.5 49.9297 58.5344 49.9969 59.8797C50.0132 60.2177 49.9606 60.5555 49.8425 60.8727C49.7244 61.1898 49.5431 61.4796 49.3097 61.7246C49.0762 61.9696 48.7954 62.1647 48.4844 62.298C48.1733 62.4312 47.8384 62.5 47.5 62.5ZM47.5 52.5H17.5703C16.225 52.5 15.0703 51.4656 15.0031 50.1203C14.9868 49.7823 15.0393 49.4445 15.1575 49.1273C15.2756 48.8102 15.4569 48.5204 15.6903 48.2754C15.9238 48.0304 16.2046 47.8353 16.5156 47.702C16.8267 47.5688 17.1616 47.5 17.5 47.5H47.4297C48.775 47.5 49.9297 48.5344 49.9969 49.8797C50.0132 50.2177 49.9606 50.5555 49.8425 50.8727C49.7244 51.1898 49.5431 51.4796 49.3097 51.7246C49.0762 51.9696 48.7954 52.1647 48.4844 52.298C48.1733 52.4312 47.8384 52.5 47.5 52.5ZM47.5 42.5H17.5703C16.225 42.5 15.0703 41.4656 15.0031 40.1203C14.9868 39.7823 15.0393 39.4445 15.1575 39.1273C15.2756 38.8102 15.4569 38.5204 15.6903 38.2754C15.9238 38.0304 16.2046 37.8353 16.5156 37.702C16.8267 37.5688 17.1616 37.5 17.5 37.5H47.4297C48.775 37.5 49.9297 38.5344 49.9969 39.8797C50.0132 40.2177 49.9606 40.5555 49.8425 40.8727C49.7244 41.1898 49.5431 41.4796 49.3097 41.7246C49.0762 41.9696 48.7954 42.1647 48.4844 42.298C48.1733 42.4312 47.8384 42.5 47.5 42.5ZM47.5 32.5H37.5703C36.225 32.5 35.0703 31.4656 35.0031 30.1203C34.9868 29.7823 35.0394 29.4445 35.1575 29.1273C35.2756 28.8102 35.4569 28.5204 35.6903 28.2754C35.9238 28.0304 36.2046 27.8353 36.5156 27.702C36.8267 27.5688 37.1616 27.5 37.5 27.5H47.4297C48.775 27.5 49.9297 28.5344 49.9969 29.8797C50.0132 30.2177 49.9606 30.5555 49.8425 30.8727C49.7244 31.1898 49.5431 31.4796 49.3097 31.7246C49.0762 31.9696 48.7954 32.1647 48.4844 32.298C48.1733 32.4312 47.8384 32.5 47.5 32.5ZM47.5 22.5H37.5703C36.225 22.5 35.0703 21.4656 35.0031 20.1203C34.9868 19.7823 35.0394 19.4445 35.1575 19.1273C35.2756 18.8102 35.4569 18.5204 35.6903 18.2754C35.9238 18.0304 36.2046 17.8353 36.5156 17.7021C36.8267 17.5688 37.1616 17.5 37.5 17.5H47.4297C48.775 17.5 49.9297 18.5344 49.9969 19.8797C50.0132 20.2177 49.9606 20.5555 49.8425 20.8727C49.7244 21.1898 49.5431 21.4796 49.3097 21.7246C49.0762 21.9696 48.7954 22.1647 48.4844 22.298C48.1733 22.4312 47.8384 22.5 47.5 22.5Z" fill="#84C2C2"/>
</svg>
