<svg width="80" height="80" viewBox="0 0 80 80" fill="none" xmlns="http://www.w3.org/2000/svg">
<path d="M63.7487 14.9995H39.3909C38.6511 15.0019 37.9272 14.7844 37.3112 14.3745L32.9675 11.4698C31.5291 10.508 29.8369 9.99614 28.1065 9.99953H16.2487C13.9288 10.002 11.7047 10.9247 10.0643 12.5651C8.42387 14.2055 7.5012 16.4296 7.49872 18.7495V22.4995H72.4987C72.4987 17.6745 68.5737 14.9995 63.7487 14.9995Z" fill="#57A44B"/>
<path d="M66.2097 69.9995H13.7878C11.4919 69.9969 9.28895 69.092 7.65412 67.48C6.0193 65.868 5.08357 63.678 5.04872 61.3823L2.52684 35.6417V35.598C2.44426 34.5663 2.5761 33.5287 2.91408 32.5504C3.25206 31.5721 3.78885 30.6744 4.49068 29.9138C5.19251 29.1531 6.04419 28.5459 6.99212 28.1304C7.94006 27.7149 8.96373 27.5001 9.99872 27.4995H70.0143C71.0491 27.5005 72.0724 27.7156 73.02 28.1313C73.9675 28.547 74.8188 29.1543 75.5203 29.9149C76.2218 30.6755 76.7583 31.5731 77.0961 32.5511C77.4339 33.5292 77.5657 34.5665 77.4831 35.598V35.6417L74.9487 61.3823C74.9139 63.678 73.9781 65.868 72.3433 67.48C70.7085 69.092 68.5056 69.9969 66.2097 69.9995Z" fill="#57A44B"/>
</svg>
