<svg width="80" height="80" viewBox="0 0 80 80" fill="none" xmlns="http://www.w3.org/2000/svg">
<path d="M76.767 50.7328L67.4998 41.4641C67.0365 40.9984 66.4854 40.6292 65.8785 40.3779C65.2715 40.1266 64.6208 39.9982 63.9639 40H42.4998V35H64.9998C66.3259 35 67.5977 34.4732 68.5354 33.5355C69.473 32.5979 69.9998 31.3261 69.9998 30V15C69.9998 13.6739 69.473 12.4021 68.5354 11.4645C67.5977 10.5268 66.3259 10 64.9998 10H42.4998V7.5C42.4998 6.83696 42.2364 6.20107 41.7676 5.73223C41.2987 5.26339 40.6629 5 39.9998 5C39.3368 5 38.7009 5.26339 38.2321 5.73223C37.7632 6.20107 37.4998 6.83696 37.4998 7.5V10H16.0358C15.3789 9.99818 14.7281 10.1266 14.1212 10.3779C13.5142 10.6292 12.9632 10.9984 12.4998 11.4641L3.23263 20.7328C2.76414 21.2016 2.50098 21.8372 2.50098 22.5C2.50098 23.1628 2.76414 23.7984 3.23263 24.2672L12.4998 33.5359C12.9632 34.0016 13.5142 34.3708 14.1212 34.6221C14.7281 34.8734 15.3789 35.0018 16.0358 35H37.4998V40H14.9998C13.6737 40 12.402 40.5268 11.4643 41.4645C10.5266 42.4021 9.99982 43.6739 9.99982 45V60C9.99982 61.3261 10.5266 62.5979 11.4643 63.5355C12.402 64.4732 13.6737 65 14.9998 65H37.4998V72.5C37.4998 73.163 37.7632 73.7989 38.2321 74.2678C38.7009 74.7366 39.3368 75 39.9998 75C40.6629 75 41.2987 74.7366 41.7676 74.2678C42.2364 73.7989 42.4998 73.163 42.4998 72.5V65H63.9639C64.6208 65.0018 65.2715 64.8734 65.8785 64.6221C66.4854 64.3708 67.0365 64.0016 67.4998 63.5359L76.767 54.2672C77.2355 53.7984 77.4987 53.1628 77.4987 52.5C77.4987 51.8372 77.2355 51.2016 76.767 50.7328Z" fill="#E96383"/>
</svg>
